<?xml version="1.0" encoding="UTF-8"?>
<svg xmlns="http://www.w3.org/2000/svg" xmlns:xlink="http://www.w3.org/1999/xlink" viewBox="0 0 840.05 595.21">
  <defs>
    <style>
      .cls-1 {
        fill: #ace1fa;
      }

      .cls-2 {
        font-size: 21.48px;
      }

      .cls-2, .cls-3, .cls-4 {
        fill: #fff;
      }

      .cls-2, .cls-5 {
        font-family: Poppins-Bold, Poppins;
      }

      .cls-6 {
        fill: #414042;
        font-family: Poppins-Light, Poppins;
        font-size: 12.28px;
      }

      .cls-7 {
        fill: #1876a8;
      }

      .cls-8, .cls-9, .cls-10 {
        fill: #53aede;
      }

      .cls-11 {
        fill: #e4ae63;
      }

      .cls-12 {
        fill: #b854a0;
      }

      .cls-13, .cls-4, .cls-14 {
        isolation: isolate;
      }

      .cls-15 {
        fill: #a24323;
      }

      .cls-16 {
        fill: #d6eff7;
        mix-blend-mode: soft-light;
      }

      .cls-17 {
        fill: #5a3e82;
        mix-blend-mode: multiply;
        opacity: .2;
      }

      .cls-18 {
        fill: #89c64d;
      }

      .cls-19 {
        fill: #f0628e;
      }

      .cls-20 {
        clip-path: url(#clippath-1);
      }

      .cls-9 {
        stroke-width: 2px;
      }

      .cls-9, .cls-10 {
        stroke: #a0dced;
        stroke-linecap: round;
        stroke-miterlimit: 10;
      }

      .cls-21, .cls-5 {
        fill: #2e3192;
      }

      .cls-4 {
        opacity: .38;
      }

      .cls-22 {
        fill: #9a509f;
      }

      .cls-14 {
        fill: #2180b4;
        opacity: .56;
      }

      .cls-23 {
        fill: #add14c;
      }

      .cls-24 {
        fill: #f7903d;
      }

      .cls-25 {
        clip-path: url(#clippath);
      }

      .cls-26 {
        fill: none;
      }

      .cls-27 {
        fill: #a6badc;
      }

      .cls-28 {
        fill: #176995;
      }

      .cls-29 {
        fill: #c05da4;
      }

      .cls-5 {
        font-size: 24px;
      }

      .cls-30 {
        fill: #cc924d;
      }

      .cls-31 {
        fill: #783e98;
      }

      .cls-32 {
        fill: #b9c8e3;
      }

      .cls-33 {
        fill: #e1f4fd;
      }

      .cls-34 {
        fill: #1977a9;
      }

      .cls-35 {
        fill: #eeba5e;
      }

      .cls-36 {
        fill: #010101;
      }
    </style>
    <clipPath id="clippath">
      <rect class="cls-26" width="840.05" height="595.21"/>
    </clipPath>
    <clipPath id="clippath-1">
      <path class="cls-29" d="M452.2,563.94c-3.9-6.18-8.29-12.09-11.34-18.73-4.52-9.83-5.93-20.91-10.83-30.56-3.27-6.44-8.01-12.06-11.15-18.57-3.15-6.5-4.5-14.57-.8-20.77,4.72,10.58,9.44,21.16,14.16,31.74,4.74,10.63,9.49,21.26,14.6,31.72,8.21,16.81,17.4,33.25,23.38,50.98,3.14-5.1-.68-11.41-2.96-16.95-3.97-9.63-3.14-20.72-7.09-30.36-2.67-6.51-7.38-11.98-10.46-18.31-5.89-12.14-5.43-26.68-11.74-38.61-2.83-5.34-6.92-9.97-9.37-15.5-2.45-5.53-2.86-12.65,1.3-17.04,4.16,9.04,8.31,18.08,12.47,27.13,7.97,17.33,15.95,34.72,21.69,52.91,3.73,11.81,6.49,23.92,8.26,36.18,1.62,11.26,2.48,22.9,7.31,33.2,.18-6.92-.24-13.85-.67-20.76-.99-16.13-1.98-32.35-5.75-48.07-3.11-12.99-8.04-26.95-2.69-39.18,9.55,29.54,13.74,60.81,12.3,91.82-.26,5.61-.55,11.77,2.84,16.25,7.16-13.1,6.24-28.95,5.12-43.84-1.07-14.22-2.14-28.52-5.53-42.37-2.37-9.69-5.85-19.1-7.57-28.92s-1.54-20.38,3.11-29.2c.69-1.31,2.18-2.76,3.41-1.93-.45,6.71,.67,13.52,3.25,19.74,1.39,3.35,3.19,6.52,4.51,9.89,1.81,4.59,2.7,9.48,3.47,14.36,5.16,32.85,4.64,66.59-1.53,99.27,4.83-8.08,9.67-16.17,14.5-24.25,3.56-5.96,7.18-12.03,8.84-18.78,1.01-4.1,1.3-8.4,2.91-12.3,1.62-3.9,5.07-7.47,9.29-7.49-2.32,15.12-8.92,29.04-15.92,42.48-3.55,6.83-7.29,13.56-10.72,20.45-2.79,5.6-4.71,14.69-8.76,19.32-8.05,9.2-19.59,.38-23.08-8.56-6.26-15.99-9.38-31.5-18.77-46.41Z"/>
    </clipPath>
  </defs>
  <g class="cls-13">
    <g id="Layer_2" data-name="Layer 2">
      <g id="Layer_1-2" data-name="Layer 1">
        <g class="cls-25">
          <path class="cls-11" d="M-32.59,489.6s168.81,2.59,268.24,49.29c99.42,46.71,286.32-18.94,298.57-20.84s228.15-64.09,315.78-37.59v182.76S0,658.67,0,658.67l-32.59-169.07Z"/>
          <path class="cls-21" d="M284.36,99.08c5.88,0,10.61,1.63,14.7,5.71,3.92,4.08,5.71,9.31,6.37,14.53v102.54h23.84v32.49h-23.84v44.9h-40.17v-44.9h-87.36v-36.09l76.25-119.2h30.21Zm-18.61,123.93v-88.5l-55.84,88.5h55.84Z"/>
          <path class="cls-21" d="M384.55,188.61c-.73,1.91,.56,4.3,2.42,6.88,.05-3.2,.18-6.36,.4-9.46-1.5,.71-2.44,1.57-2.82,2.58Zm0,0c-.73,1.91,.56,4.3,2.42,6.88,.05-3.2,.18-6.36,.4-9.46-1.5,.71-2.44,1.57-2.82,2.58Z"/>
          <path class="cls-21" d="M494.01,194.96c0-.35,0-.7,0-1.06h0c-.01-.14-.01-.29-.01-.42-.01-.56-.03-1.12-.04-1.68-.02-.5-.03-1-.05-1.49-.01-.35-.02-.69-.04-1.03,0-.35-.02-.68-.03-1.02-.01-.18-.02-.35-.03-.53-.01-.17-.01-.35-.02-.53,0-.03,0-.05-.01-.09,0-.09-.01-.19-.01-.29-.35-7.38-1.03-14.29-2.02-20.75-.03-.17-.06-.34-.08-.51-.03-.17-.06-.33-.09-.5-.07-.46-.15-.92-.22-1.38-.08-.47-.17-.94-.25-1.41-.09-.49-.18-.98-.26-1.46-.22-1.12-.45-2.23-.68-3.33-.04-.17-.07-.34-.11-.51-.03-.16-.07-.33-.11-.5-.35-1.61-.74-3.19-1.13-4.74-.88-3.34-1.85-6.52-2.93-9.54-.28-.82-.58-1.62-.88-2.4-.11-.3-.23-.59-.35-.88-.16-.42-.32-.84-.5-1.25-1.08-2.64-2.25-5.15-3.51-7.53-.28-.54-.57-1.06-.85-1.59-.13-.22-.26-.44-.38-.66-1.35-2.36-2.78-4.6-4.3-6.7-.93-1.27-1.89-2.5-2.89-3.68-.12-.15-.25-.31-.38-.46-.41-.46-.85-.9-1.27-1.35-1.08-1.11-2.19-2.18-3.33-3.19-.75-.68-1.5-1.34-2.28-1.97-1.23-1.02-2.5-1.98-3.79-2.88-.16-.12-.31-.22-.47-.33-.15-.11-.3-.21-.46-.31-2.31-1.58-4.72-2.98-7.23-4.23-.16-.09-.33-.17-.49-.24-.17-.09-.33-.17-.5-.25-7.85-3.74-16.63-5.94-26.31-6.59-1.93-.14-3.9-.21-5.9-.21h-.38c-1.95,0-3.84,.05-5.69,.15-.25,0-.49,.02-.73,.05-.23,0-.45,.02-.68,.04-19.22,1.3-33.57,8.13-44.67,20.82-14.69,16.98-22.04,44.57-22.04,82.62s6.21,66.3,19.76,80.83c13.55,14.53,31.19,22.2,54.05,22.2,14.28,0,26.15-2.68,36.07-7.99h0c.31-.18,.62-.35,.92-.52,.3-.17,.6-.34,.89-.51,5.21-3.03,9.86-6.83,14.04-11.39,1.2-1.31,2.37-2.7,3.48-4.15,.12-.15,.23-.31,.34-.45,.12-.15,.23-.3,.34-.46,11.95-16.21,18.2-40.84,18.51-74.8,0-.19,.01-.39,.01-.58v-.41c.01-.45,.01-.89,.01-1.35v-.42c0-1.42-.02-2.82-.04-4.21Zm-102.5,45.52c-2.43-10.08-3.85-20.77-4.36-31.9-.01-.17-.02-.33-.02-.5,0-.17-.02-.33-.02-.5-.03-.61-.05-1.21-.07-1.82-.07-2.18-.1-4.38-.1-6.59v-.95c0-.41,0-.81,0-1.21v-.6s.01-.03,0-.04c.01-.3,.01-.59,.02-.88-1.86-2.58-3.15-4.97-2.42-6.88,.38-1.01,1.32-1.87,2.82-2.58,0-.16,0-.31,.02-.47h.01c.01-.19,.02-.38,.04-.56,.27-3.79,.66-7.51,1.17-11.19,.63-4.56,1.44-9.05,2.45-13.51,.03-.16,.07-.32,.11-.48,.03-.15,.06-.31,.11-.46,.07-.34,.15-.67,.23-1.01,.91-3.66,1.95-6.97,3.12-9.96,.06-.16,.12-.32,.18-.48,.09-.23,.18-.45,.28-.68,1.37-3.33,2.9-6.21,4.58-8.66,.22-.31,.44-.62,.65-.92,.21-.29,.42-.56,.63-.83,.62-.79,1.25-1.53,1.91-2.21,.14-.14,.29-.29,.43-.44,.15-.15,.31-.29,.46-.44,.38-.35,.76-.69,1.15-1.02,1.57-1.07,3.26-2,5.06-2.73,.16-.07,.32-.14,.48-.19,.16-.07,.33-.13,.49-.19,2.25-.81,4.69-1.32,7.34-1.43,.38-.02,.77-.03,1.16-.03,2.9,0,5.66,.56,8.24,1.53,.17,.06,.33,.12,.5,.2,.16,.06,.32,.13,.49,.2,.16,.06,.32,.13,.47,.21,1.41,.63,2.75,1.38,4.04,2.24,.1,.06,.2,.12,.3,.19,.04,.04,.09,.07,.14,.12,.14,.11,.29,.24,.43,.36,2.32,2,4.43,4.63,6.35,7.91,.03,.05,.07,.12,.09,.17,.07,.12,.14,.23,.2,.34,.05,.1,.11,.2,.16,.3,.05,.07,.08,.14,.12,.21,.09,.16,.17,.31,.25,.47,1.56,2.9,2.97,6.26,4.25,10.09,.18,.54,.36,1.09,.53,1.64,.47,1.5,.93,3.06,1.36,4.68,.41,1.71,.79,3.43,1.15,5.14,.05,.22,.09,.44,.14,.66,.04,.23,.09,.45,.13,.67,.32,1.61,.62,3.23,.9,4.85v.02c.58,3.36,1.04,6.75,1.41,10.21,.55,5.08,.88,10.29,.97,15.67,.03,1.14,.03,2.29,.03,3.45,0,4.52-.12,8.92-.41,13.19v.02c-.04,.73-.1,1.46-.16,2.19-.08,.92-.15,1.84-.25,2.74-.09,.98-.2,1.95-.32,2.91-.9,7.36-2.24,17.78-5.3,27.08-.16,.48-.32,.96-.49,1.44t-.01,.02c-.15,.45-.32,.9-.48,1.35-.8,2.09-1.69,4.1-2.7,5.96-2.11,3.94-4.73,7.28-8,9.55-3.19,1.89-6.13,3.18-9.01,3.88-1.86,.46-3.67,.69-5.52,.69-5.07,0-9.63-1.47-13.88-4.57-.33-.21-.64-.43-.96-.66-.4-.29-.79-.6-1.18-.94-.37-.32-.75-.67-1.11-1.03-4.71-4.68-8.25-12.41-10.79-23.01Z"/>
          <path class="cls-21" d="M621.11,99.08c5.88,0,10.61,1.63,14.7,5.71,3.92,4.08,5.71,9.31,6.37,14.53v102.54h23.84v32.49h-23.84v44.9h-40.17v-44.9h-87.36v-36.09l76.26-119.2h30.21Zm-18.61,123.93v-88.5l-55.84,88.5h55.84Z"/>
          <g>
            <path class="cls-8" d="M392.67,183.97c-19.57,3.73,0,15.68,1.14,23.31,.47,3.12-.39,3.6-8.37,.06-27.95-12.39-27.04-45.54,7.63-47.68,19.1-1.18,4.4,23.41-.41,24.3Z"/>
            <path class="cls-14" d="M392.67,183.97c3.39-.63,9.39-10.36,9.54-16.9-11.13,2.73-20.72,10.22-19.81,21.22,.34,4.59,4.72,8.62,5.78,13.13,.46,1.93,.11,4.21-1.75,4.54-.93,.22-1.88,.4-2.84,.52,.6,.3,1.21,.59,1.84,.87,7.98,3.54,8.81,3.06,8.37-.06-1.07-7.61-20.71-19.58-1.14-23.31Z"/>
            <path class="cls-1" d="M383.87,165.02c-2.22,.49-4.38,1.29-6.32,2.49-1.58,.98-3.53,2.47-3.96,4.39-.16,.7,.48,1.19,1.12,.93,1.59-.64,2.92-2.03,4.4-2.92,1.68-1.02,3.5-1.68,5.42-2.1,1.8-.4,1.15-3.19-.65-2.79h0Z"/>
            <path class="cls-1" d="M370.65,175.92c-.93,1.66-1.91,3.64-1.36,5.56,.14,.5,.89,.71,1.17,.2,.83-1.5,.98-3.24,1.7-4.79,.47-1.01-.93-2-1.51-.97h0Z"/>
            <path class="cls-7" d="M391.51,210.11c-1.36-.3-3.33-1.06-6.24-2.35-13.83-6.13-21.76-17.95-19.73-29.42,1.93-10.95,12.22-18.1,27.52-19.13,7.58-.51,9.62,2.98,10,6,.92,7.32-6.97,18.59-10.29,19.21-4.8,.92-7.48,2.28-8.2,4.19-.97,2.56,1.67,5.98,4.46,9.6,2.3,2.98,4.68,6.06,5.25,8.99,.21,1.09,.31,2.17-.4,2.73-.46,.37-1.18,.45-2.36,.18Zm5.89-49.76c-1.21-.27-2.64-.35-4.29-.24-14.85,1-24.82,7.87-26.68,18.38-1.95,11.05,5.76,22.48,19.2,28.43,3.15,1.4,6.87,2.92,7.66,2.28,.33-.27,.2-1.18,.07-1.84-.53-2.71-2.84-5.71-5.07-8.6-2.95-3.83-5.75-7.44-4.59-10.48,.84-2.22,3.75-3.78,8.89-4.76,0,0,0,0,0,0,3.02-.56,10.41-11.43,9.56-18.2-.34-2.68-1.93-4.34-4.75-4.97Z"/>
          </g>
          <path class="cls-8" d="M461.76,181.69c-2.52,7.66-4.79,14.78-6.79,21.4-.64,2.14-1.27,4.23-1.85,6.26-.06,.23-.13,.45-.19,.68h0c-.03,.08-.05,.15-.06,.22-.47,1.64-.93,3.25-1.36,4.82-3.82,13.95-6.07,25.24-6.36,34.17t0,.01c-.16,.45-.32,.9-.49,1.35-.79,2.09-1.68,4.1-2.69,5.97-2.11,3.94-4.73,7.28-8,9.55-3.19,1.89-6.13,3.17-9.01,3.88-1.85,.46-3.67,.69-5.52,.69-5.06,0-9.63-1.47-13.88-4.57-.33-.21-.64-.43-.96-.66-.4-.29-.79-.6-1.17-.93-9.49-15.52-12.63-35.07-12.67-54.61v-.95c0-2.23,.06-4.47,.14-6.7,0-.21,.01-.42,.02-.62v-.04c.01-.28,.02-.56,.04-.83,.24-5.5,.69-10.94,1.28-16.24,.01-.16,.03-.32,.05-.47,.02-.16,.04-.33,.05-.48,.54-4.64,1.17-9.18,1.85-13.52,.42-2.67,.86-5.27,1.31-7.79,.13-.71,.25-1.42,.38-2.12,.03-.15,.05-.29,.08-.43,.03-.16,.06-.31,.08-.47,.43-2.35,.87-4.61,1.29-6.78,.04-.19,.08-.38,.12-.57,.04-.19,.07-.38,.11-.57,.38-1.92,.76-3.77,1.12-5.54,.6-2.96,1.17-5.69,1.66-8.13,.25-1.25,.49-2.42,.69-3.51,0,0,.82,0,2.28,.04,1.68,.06,4.21,.18,7.32,.48,.17,.01,.34,.04,.52,.06,.17,.01,.35,.03,.52,.05,1.19,.13,2.45,.28,3.77,.45,3.13,.42,6.6,1.02,10.23,1.85,.04,0,.08,.01,.11,.03,.18,.04,.35,.08,.52,.12,.17,.04,.33,.08,.5,.12,2.14,.51,4.33,1.1,6.52,1.8,.16,.06,.32,.11,.48,.16,.15,.05,.3,.1,.46,.15,1.37,.45,2.74,.94,4.11,1.47,.53,.21,1.06,.42,1.58,.63,.3,.13,.59,.25,.89,.38,.25,.11,.51,.22,.76,.33,0,0,.01,0,.02,0,.06,.03,.12,.06,.18,.08,.18,.08,.36,.16,.54,.25h0c.18,.08,.35,.16,.53,.25,.82,.38,1.64,.78,2.45,1.21,0,0,0,0,.01,0,.56,.29,1.11,.59,1.66,.9,.01,0,.04,.01,.05,.03,3.52,1.97,6.84,4.3,9.77,7.06,.42,.4,.84,.81,1.24,1.23,.5,.5,.98,1.02,1.45,1.55,.32,.36,.64,.74,.94,1.11,.09,.11,.18,.22,.26,.33,.2,.25,.4,.51,.6,.76,1.46,1.92,2.74,4.01,3.81,6.27,.08,.17,.16,.34,.23,.51h0c.08,.16,.16,.33,.23,.5,.13,.29,.25,.59,.37,.88,.05,.13,.1,.25,.16,.37,.06,.16,.12,.33,.18,.49,.12,.3,.24,.62,.35,.93-.48,1.43-.95,2.84-1.42,4.23-.02,.07-.05,.14-.07,.21-.02,.07-.05,.15-.07,.22-.05,.15-.1,.3-.15,.44-1,3-1.97,5.91-2.91,8.76-.06,.15-.11,.3-.15,.45-.05,.13-.09,.28-.14,.41Z"/>
          <path class="cls-8" d="M487.96,281.18c-.14,.19-.31,.39-.49,.59-.1,.11-.21,.23-.33,.34-.11,.11-.22,.21-.33,.32-4.79,4.5-17.23,10.28-30.38,11.26,.3-.16,.59-.33,.89-.51,5.21-3.03,9.86-6.83,14.03-11.38,1.21-1.31,2.38-2.7,3.49-4.16,.12-.15,.23-.3,.34-.45,2.28,.02,4.7-.05,7.27-.2,.51-.03,1-.05,1.44-.05,.17,0,.34,0,.5,0s.33,0,.49,.02c2.05,.11,3.25,.57,3.73,1.29,.52,.74,.24,1.76-.66,2.92Z"/>
          <path class="cls-1" d="M464.41,166.17h0c0,.18,0,.35,0,.52-.04,1.17-.37,2.44-1.05,3.8-.06,.11-.11,.22-.16,.33-.07,.14-.14,.28-.21,.42-.07,.14-.14,.28-.21,.42-.47,.96-.97,1.97-1.46,3.03-2.89,6.03-6.18,13.45-9.25,21.53-7.42,19.48-13.62,42.87-10.09,60.35-2.11,3.94-4.73,7.28-8,9.55-3.19,1.89-6.13,3.17-9.01,3.88-2.29-2.38-4.76-5.29-7.43-8.73-15.55-20.12-15.62-56.63-10.46-86.33,.79-4.57,1.71-8.98,2.72-13.15,.04-.19,.09-.38,.13-.57,0,0,0-.01,0-.01,.02-.11,.05-.22,.08-.33,.86-3.46,1.77-6.75,2.72-9.81,.23,0,12.44,0,24.93,1.77,.19,.03,.38,.06,.57,.08s.38,.06,.57,.08c2.43,.36,4.86,.8,7.2,1.31,.89,.2,1.76,.4,2.62,.62,.28,.07,.54,.15,.81,.22h0c.3,.08,.59,.16,.89,.25,.81,.23,1.61,.47,2.38,.74,1.51,.5,2.93,1.05,4.22,1.67,2.93,1.38,5.21,3.05,6.45,5.05,.11,.18,.21,.36,.3,.54h0c.08,.17,.16,.35,.23,.52,.23,.57,.39,1.17,.46,1.8,.01,.14,.02,.28,.03,.43Z"/>
          <path class="cls-14" d="M466.67,166.96c-.51,1.5-1.01,2.99-1.5,4.45-9.09,8.63-21.83,13.46-34.37,12.57-14.33-1.02-27.87-9.47-35.32-21.73,1.06-6.02,2.17-11.58,3.18-16.48,1.62,1.49,3.37,3.99,5,3.84,19.43-1.76,39.08,1.41,57.67,7.39,2.22,2.93,4.04,6.23,5.34,9.96Z"/>
          <path class="cls-33" d="M428.81,228.39c-.5,3.05-.87,6.15-.83,9.25,.03,2.68,.12,6.13,1.47,8.5,.38,.67,1.41,.6,1.65-.15,.81-2.58,.53-5.87,.51-8.55-.03-2.98,.1-5.98,.35-8.95,.18-2.07-2.83-2.03-3.15-.1h0Z"/>
          <path class="cls-33" d="M428.87,253c.07,1.11,.15,2.17,.37,3.26,.2,.99,.31,1.91,.92,2.74,.3,.41,1.03,.31,1.27-.11,.48-.85,.48-1.76,.54-2.71,.07-1.05,.04-2.04-.03-3.09-.13-1.96-3.21-2.08-3.08-.09h0Z"/>
          <path class="cls-7" d="M465.1,171.63c.02-.07,.05-.15,.07-.22,.02-.07,.05-.14,.07-.21-.16-.02-.3-.05-.46-.08-.04,.15-.09,.29-.14,.44-.05,.15-.1,.3-.15,.44,0,.02-.01,.04-.02,.06-1.03,3.08-2.02,6.07-2.98,8.97,0,0,0,0,0,.01,0,.01,0,.03,0,.04-.01,.04-.02,.07-.04,.1-2.59,7.89-4.89,15.16-6.91,21.86,.15,.02,.29,.04,.43,.05,2-6.62,4.27-13.74,6.79-21.4,.05-.13,.09-.28,.14-.41,.13,.07,.27,.13,.41,.2,.05-.16,.1-.3,.15-.46,.95-2.88,1.93-5.83,2.95-8.88,.05-.15,.1-.29,.15-.44-.16-.02-.3-.04-.45-.07Zm-17.56-25.82s.04,.01,.06,.03c-.1-.13-.2-.28-.28-.42,.07,.13,.15,.26,.23,.39Zm-55.21,37.76c-.01,.16-.03,.32-.05,.48-.16,.03-.31,.06-.46,.1-.02,.16-.04,.31-.06,.47-.56,5.08-1,10.3-1.24,15.57-.01,.28-.03,.56-.03,.84,0,.01,0,.03,0,.04,.15,.19,.28,.37,.42,.57,0,.21-.01,.41-.02,.62,.15,.22,.3,.43,.43,.65,0-.22,.01-.44,.03-.66,0,0,0-.02,0-.04,0-.28,.01-.56,.04-.84,.23-5.73,.7-11.42,1.32-16.94,.01-.16,.03-.33,.05-.48,.01-.17,.04-.33,.06-.49-.08,.03-.16,.05-.23,.06-.08,.01-.17,.04-.25,.05Zm96.8,94.64c-.05-.1-.11-.2-.18-.28-.64-.86-2.06-1.34-4.25-1.43-.16,0-.33,0-.49-.01-.16,0-.32,0-.48,0-.41,0-.85,.01-1.3,.04-2.44,.14-4.74,.21-6.91,.2-.11,.16-.22,.3-.34,.45-.11,.15-.22,.3-.34,.45,2.38,.04,4.93-.03,7.63-.19,.61-.04,1.15-.05,1.65-.05,.21,0,.42,0,.61,.01,.02,0,.04,0,.06,0,2.58,.12,3.31,.8,3.51,1.17,0,0,0,.02,.01,.03,.33,.64-.13,1.52-.66,2.2-.05,.08-.11,.14-.16,.21-.08,.11-.18,.21-.28,.32-.1,.11-.21,.23-.33,.35h0s-.33,.33-.33,.33c-4.47,4.25-16.37,9.98-29.24,11.15-.3,.18-.59,.35-.89,.51-.3,.18-.62,.35-.93,.52,13.68-.78,26.64-6.88,31.56-11.42,.11-.11,.23-.21,.33-.31,.12-.11,.23-.23,.33-.33,.1-.11,.19-.2,.28-.3,.07-.08,.13-.16,.2-.23,.02-.03,.04-.06,.06-.08,.06-.08,.13-.16,.18-.24,1.1-1.48,.98-2.49,.68-3.08Zm-26.82-96.73c.05-.16,.1-.3,.15-.46,.95-2.88,1.93-5.83,2.95-8.88,.05-.15,.1-.29,.15-.44,.04-.14,.09-.29,.15-.44,.45-1.36,.92-2.75,1.39-4.16,.04-.09,.04-.2,0-.3-.11-.31-.22-.62-.35-.93-.06-.16-.12-.33-.18-.49-.05-.12-.1-.25-.16-.37-.08-.21-.17-.43-.26-.64-.07-.17-.15-.33-.23-.5-.07-.17-.15-.33-.23-.49-1.15-2.48-2.6-4.83-4.33-7.03h0c-.16-.22-.33-.43-.51-.64-.2-.25-.4-.49-.62-.74-.56-.65-1.15-1.29-1.77-1.92-.28-.3-.58-.59-.88-.88-1.68-1.63-3.52-3.15-5.54-4.57-.49-.35-1-.7-1.53-1.04-1.21-.8-2.48-1.56-3.8-2.28-.04-.03-.06-.04-.1-.06-.5-.28-1-.54-1.52-.81h0c-.26-.14-.52-.28-.78-.4-.51-.26-1.03-.51-1.56-.75-.18-.08-.36-.17-.54-.24h0c-.18-.09-.35-.17-.53-.25-.02,0-.04-.01-.05-.02-.37-.17-.76-.33-1.14-.49-.18-.08-.37-.16-.56-.24-1.82-.75-3.73-1.45-5.72-2.09-.16-.06-.3-.11-.46-.15-.16-.06-.32-.11-.48-.16-1.19-.38-2.42-.74-3.68-1.07-.83-.22-1.65-.43-2.47-.63-.16-.04-.33-.08-.49-.12-.17-.04-.33-.08-.5-.12-.02,0-.04,0-.06-.01-3.86-.89-7.56-1.52-10.89-1.96-1.31-.18-2.56-.32-3.73-.44-.17-.02-.34-.04-.51-.06-.17-.01-.35-.03-.51-.04-2.76-.27-5.05-.39-6.69-.45-1.71-.06-2.7-.06-2.74-.06-.22,0-.4,.16-.45,.37-.26,1.39-.57,2.89-.9,4.52-.25,1.26-.53,2.59-.82,4.02-.52,2.54-1.09,5.29-1.67,8.24-.04,.2-.08,.4-.12,.59-.04,.2-.08,.4-.11,.59-.46,2.3-.92,4.69-1.37,7.19-.04,.16-.06,.3-.08,.46-.03,.15-.06,.29-.08,.44-.59,3.27-1.17,6.68-1.72,10.21-.67,4.3-1.29,8.77-1.81,13.36-.02,.16-.04,.32-.05,.48-.02,.16-.04,.31-.06,.47-.56,5.08-1,10.3-1.24,15.57-.01,.28-.03,.56-.03,.84,0,.01,0,.03,0,.04-.01,.19-.02,.39-.02,.58-.1,2.38-.16,4.78-.16,7.17,0,.16,0,.33,0,.49v.47c0,5.16,.23,10.33,.72,15.42,1.48,15.15,5.25,27.94,11.29,38.3,.36,.36,.74,.71,1.11,1.03,.38,.33,.78,.64,1.17,.93-6.85-10.66-11.08-24.13-12.67-40.35-.49-4.97-.71-10.02-.72-15.06v-.95c0-2.06,.05-4.13,.12-6.19,0-.22,.01-.44,.03-.66,0,0,0-.02,0-.04,0-.28,.01-.56,.04-.84,.23-5.73,.7-11.42,1.32-16.94,.01-.16,.03-.33,.05-.48,.01-.17,.04-.33,.06-.49,.54-4.7,1.18-9.27,1.87-13.66,.37-2.38,.76-4.7,1.16-6.96,.16-.9,.32-1.78,.47-2.65,.03-.14,.06-.29,.08-.43,.03-.16,.06-.31,.08-.47,.41-2.21,.82-4.33,1.22-6.38,.04-.19,.08-.39,.11-.58,.04-.18,.08-.37,.11-.55,.39-1.96,.76-3.83,1.13-5.62,.24-1.17,.47-2.29,.69-3.38,.45-2.17,.86-4.15,1.21-5.95,.16-.78,.3-1.52,.44-2.23,.31,0,.81,0,1.47,.03,1.7,.04,4.48,.18,7.97,.52,.17,.02,.35,.04,.53,.06,.18,.02,.37,.04,.55,.06,1.21,.13,2.49,.29,3.83,.47,2.92,.41,6.11,.95,9.44,1.7,.06,.01,.13,.03,.19,.04,.18,.04,.36,.08,.54,.13,.18,.04,.35,.08,.52,.12,.96,.23,1.93,.47,2.91,.74,1.31,.35,2.65,.74,4.02,1.18,.16,.06,.33,.11,.49,.16,.16,.05,.31,.1,.47,.16,.88,.29,1.75,.59,2.64,.93,.49,.18,1,.37,1.5,.57,.4,.16,.79,.31,1.19,.48,.52,.21,1.04,.44,1.56,.66,.25,.11,.51,.23,.76,.35,.18,.08,.36,.16,.54,.25h0c.18,.08,.37,.17,.56,.27,.87,.41,1.74,.84,2.59,1.31t.01,0c.62,.33,1.24,.67,1.85,1.03,.02,0,.04,.01,.06,.03,2.9,1.69,5.68,3.65,8.21,5.92,.62,.56,1.23,1.14,1.82,1.74,.35,.35,.69,.7,1.01,1.06,.47,.5,.91,1.01,1.34,1.54h0s.03,.04,.04,.05c.17,.2,.33,.4,.49,.61,1.55,1.95,2.91,4.08,4.06,6.4,.08,.17,.16,.34,.24,.52h0c.08,.18,.16,.35,.24,.52,.17,.37,.33,.76,.49,1.14,.05,.13,.1,.25,.15,.37h0c.06,.16,.13,.33,.18,.48,.1,.26,.2,.52,.29,.78-.47,1.4-.94,2.79-1.4,4.16-.04,.15-.09,.29-.14,.44-.05,.15-.1,.3-.15,.44,0,.02-.01,.04-.02,.06-1.03,3.08-2.02,6.07-2.98,8.97,0,0,0,0,0,.01,0,.01,0,.03,0,.04-.01,.04-.02,.07-.04,.1-2.59,7.89-4.89,15.16-6.91,21.86-.65,2.15-1.27,4.24-1.85,6.27-.03,.09-.05,.18-.08,.26,0,.01,0,.02,0,.03-.06,.2-.11,.4-.17,.59-.25,.9-.51,1.8-.76,2.67h0c-4.48,16.05-6.91,28.35-7.02,37.74,.17-.45,.33-.9,.49-1.35t0-.01c.17-.48,.33-.96,.49-1.44,.45-7.91,2.36-17.76,5.61-29.99,.64-2.41,1.34-4.91,2.09-7.51,.02-.07,.04-.15,.06-.22t0-.01c.06-.22,.12-.45,.18-.66,.59-2.03,1.2-4.11,1.85-6.26,1.97-6.52,4.21-13.59,6.72-21.26,.04-.13,.09-.28,.13-.41Z"/>
          <g>
            <g>
              <path class="cls-8" d="M484.47,277.1c-1.84-3.97-1.82-11.14,1.25-17.61,4.14-8.72,13.42-14.96,18.74-16.42,3.09,7.75,2.42,16.95-1.72,25.68-4.14,8.72-10.21,14.93-14.29,12.99l-3.98-4.65Z"/>
              <path class="cls-7" d="M489.12,282.46c-.3-.07-.59-.17-.87-.3-.23-.11-.32-.38-.22-.61,.11-.23,.38-.32,.61-.22,3.54,1.68,9.42-3.81,13.68-12.78,4.07-8.57,4.72-17.4,1.86-24.93-5.08,1.57-14.03,7.57-18.06,16.06-3.21,6.76-2.89,13.66-1.24,17.22,.11,.23,0,.5-.22,.61-.23,.11-.5,0-.61-.22-1.73-3.74-2.08-10.97,1.25-17.99,4.3-9.07,13.72-15.2,19.03-16.66,.22-.06,.46,.05,.54,.27,3.13,7.85,2.51,17.09-1.74,26.04-3.66,7.72-9.5,14.52-14.02,13.51Z"/>
            </g>
            <g>
              <path class="cls-8" d="M495.16,271.56c1.91-.45,4.03-.68,6.23-.64,1.28,.02,2.6,.14,3.92,.37,9.52,1.62,18.03,8.85,20.89,13.59-6.62,5.08-15.66,6.93-25.18,5.31-7.51-1.28-13.1-5.74-14.68-9.57l8.83-9.05Z"/>
              <path class="cls-7" d="M499.68,290.38c-7.08-1.58-12.24-5.92-13.76-9.6-.1-.23,.01-.5,.25-.6,.23-.1,.5,.01,.6,.25,1.52,3.67,6.93,8.04,14.34,9.3,9.35,1.59,18.03-.18,24.5-4.97-2.89-4.46-11.1-11.45-20.36-13.02-1.26-.21-2.56-.34-3.85-.36-2.1-.04-4.16,.17-6.12,.63-.25,.06-.49-.1-.55-.34-.06-.25,.1-.49,.34-.55,2.04-.47,4.17-.7,6.34-.65,1.34,.02,2.68,.15,3.99,.37,9.9,1.68,18.36,9.08,21.2,13.8,.12,.2,.07,.46-.11,.6-6.7,5.14-15.77,7.05-25.54,5.4-.43-.07-.85-.16-1.27-.25Z"/>
            </g>
            <path class="cls-1" d="M500.74,275.62c1.75,.38,3.48,.88,5.21,1.36,1.58,.44,3.11,1.13,4.77,1.14,.6,0,.8-.64,.5-1.08-2.11-2.99-6.98-2.76-10.21-2.99-.89-.06-1.16,1.38-.26,1.57h0Z"/>
            <path class="cls-1" d="M514.54,281.66c.4,.28,.79,.59,1.21,.85,.46,.29,.98,.4,1.48,.61,1.09,.46,1.99-1.12,1.21-1.91-.38-.38-.69-.83-1.13-1.13-.4-.28-.82-.54-1.24-.8-1.54-1-3.01,1.34-1.52,2.39h0Z"/>
          </g>
          <g>
            <g>
              <path class="cls-8" d="M443.93,77.14c.36-.67,.88-1.42,1.63-1.4,.8,.02,1.28,.89,1.57,1.63,1.48,3.77,2.6,7.69,3.34,11.68l-10.76-.81c.92-3.86,2.34-7.6,4.21-11.11Z"/>
              <path class="cls-7" d="M439.15,88.66l.12-.52c.93-3.9,2.36-7.68,4.25-11.21,.22-.41,.89-1.67,2.05-1.64,1.25,.03,1.8,1.46,1.98,1.92,1.49,3.8,2.62,7.75,3.37,11.76l.11,.58-11.88-.89Zm6.51-12.44s-.08-.01-.12-.01c-.4-.01-.8,.37-1.22,1.15h0c-1.77,3.31-3.13,6.83-4.04,10.48l9.63,.72c-.73-3.75-1.81-7.45-3.21-11.01-.31-.8-.66-1.25-1.04-1.33Z"/>
            </g>
            <path class="cls-8" d="M393.11,139.26c-.66,7.8,4.36,14.61,12.9,19.67,7.94,4.7,18.66,11.05,30.95,12.09,12.1,1.02,23.57-3.38,32.14-6.57,9.49-3.53,15.75-9.46,16.42-17.37,.34-3.96-.78-7.85-3.07-11.46-2.14-3.37-3.18-7.34-2.78-11.32,.02-.18,.03-.36,.05-.54,1.65-19.51-14.3-36.79-35.63-38.59-21.33-1.8-39.96,12.55-41.61,32.06-.01,.16-.03,.32-.04,.48-.28,4.03-1.82,7.89-4.5,10.91-2.8,3.15-4.51,6.74-4.84,10.65Z"/>
            <path class="cls-1" d="M405.07,158.36c.31,.19,.62,.38,.94,.57,9.85,5.83,19.54,11.14,30.95,12.09,11.44,.98,22.06-2.82,32.14-6.57,.34-.13,.68-.26,1.02-.39,3.09-3.71,3.85-8.03,2.81-11.46-.86-2.79-3.09-5.21-5.93-5.97-4.94-1.33-10.83,2.46-15.26-.4-3.87-2.5-7.67-4.45-12.38-4.75-4.72-.3-8.87,.7-13.05,2.6-4.7,2.14-9.99-2.65-15.11-2.17-6.19,.58-10.63,8.32-6.12,16.45Z"/>
            <g>
              <circle class="cls-3" cx="462.02" cy="134.59" r="9.17"/>
              <path class="cls-36" d="M459.91,143.99c-4.63-1.03-7.9-5.36-7.49-10.21,.22-2.56,1.42-4.89,3.38-6.55,1.96-1.66,4.46-2.45,7.02-2.24,2.56,.22,4.89,1.42,6.55,3.38,1.66,1.97,2.45,4.46,2.24,7.02-.22,2.56-1.42,4.89-3.38,6.55-1.96,1.66-4.46,2.45-7.02,2.24-.44-.04-.87-.1-1.29-.2Zm4.01-17.9c-.39-.09-.78-.15-1.18-.18-2.32-.2-4.58,.52-6.36,2.02-1.78,1.5-2.87,3.61-3.06,5.93-.4,4.79,3.16,9.01,7.95,9.42,2.32,.2,4.58-.52,6.36-2.02,1.78-1.5,2.87-3.61,3.06-5.93,.2-2.32-.52-4.58-2.02-6.36-1.24-1.47-2.9-2.47-4.75-2.88Z"/>
            </g>
            <path class="cls-36" d="M453.39,134.61c-.31,3.71,2.44,6.98,6.15,7.29,3.71,.31,6.98-2.44,7.29-6.15,.31-3.71-2.44-6.97-6.15-7.29-1.96-.17-3.8,.52-5.14,1.76,2.3,1.53,3.64,3.54,3,4.52-.61,.94-2.84,.58-5.07-.78-.04,.21-.07,.43-.09,.65Z"/>
            <g>
              <path class="cls-3" d="M410.39,130.24c-.43,5.05,3.32,9.49,8.37,9.91,5.05,.43,9.49-3.32,9.91-8.37,.43-5.05-3.32-9.49-8.37-9.91-5.05-.43-9.49,3.32-9.91,8.37Z"/>
              <path class="cls-36" d="M417.42,140.41c-2.04-.45-3.87-1.56-5.24-3.18-1.66-1.97-2.45-4.46-2.24-7.02h0c.45-5.29,5.12-9.23,10.41-8.78,2.56,.22,4.89,1.42,6.55,3.38,1.66,1.97,2.45,4.46,2.24,7.02-.22,2.56-1.42,4.89-3.38,6.55-1.96,1.66-4.46,2.45-7.02,2.24-.44-.04-.88-.1-1.3-.2Zm-6.57-10.13c-.2,2.32,.52,4.58,2.02,6.36,1.5,1.78,3.61,2.87,5.93,3.06,2.32,.2,4.58-.52,6.36-2.02,1.78-1.5,2.87-3.61,3.06-5.93,.2-2.32-.52-4.58-2.02-6.36-1.5-1.78-3.61-2.87-5.93-3.06-4.79-.41-9.01,3.16-9.42,7.95h0Z"/>
            </g>
            <path class="cls-36" d="M414.58,131.34c-.31,3.71,2.44,6.98,6.15,7.29s6.98-2.44,7.29-6.15c.31-3.71-2.44-6.97-6.15-7.29-1.96-.17-3.8,.52-5.14,1.76,2.3,1.53,3.64,3.54,3,4.52-.61,.94-2.84,.58-5.07-.78-.04,.21-.07,.43-.09,.65Z"/>
            <path class="cls-28" d="M459.17,112.43c-.08,.96,1.77,1.02,4.04,1.22,2.27,.19,4.11,.44,4.19-.52,.08-.96-1.62-2.76-3.89-2.95-2.27-.19-4.25,1.3-4.33,2.26Z"/>
            <path class="cls-28" d="M420.25,111.17c.24,.93,2.01,.38,4.22-.2,2.21-.57,4.02-.95,3.78-1.88-.24-.93-2.45-2.07-4.65-1.49-2.21,.57-3.58,2.64-3.34,3.57Z"/>
            <path class="cls-34" d="M425.3,145.38c-.11-.02-.21-.09-.28-.19-.14-.21-.09-.49,.12-.63,4.08-2.74,9.03-4.03,13.93-3.61,4.9,.41,9.56,2.51,13.13,5.89,.18,.17,.19,.46,.02,.64-.17,.18-.46,.19-.64,.02-3.42-3.24-7.88-5.25-12.58-5.64-4.69-.4-9.43,.83-13.34,3.46-.11,.07-.24,.09-.35,.07Z"/>
            <path class="cls-7" d="M415.09,164.56s-.07-.02-.11-.04l-.92-.47c-5.93-3.05-12.06-6.2-16.52-11.31-5.72-6.55-6.45-15.37-1.81-21.94,.45-.64,.91-1.26,1.36-1.86,1.9-2.57,3.7-5.01,4.46-8.29,.28-1.18,.4-2.42,.52-3.62,.09-.93,.19-1.89,.36-2.83,.37-2.11,.96-4.21,1.75-6.24,2.67-6.86,7.76-12.94,14.33-17.11,6.57-4.18,14.64-6.4,22.72-6.27,8.25,.14,16.44,2.72,23.06,7.27,6.26,4.3,11.15,10.38,13.75,17.11,1.55,4,2.31,8.21,2.25,12.5,0,.51-.02,1.02-.03,1.52-.08,3.61-.16,7.02,1.46,10.29,.35,.7,.7,1.38,1.05,2.05,1.53,2.93,2.98,5.7,3.22,9.21,.28,4.02-.95,8.05-3.45,11.35-4.31,5.68-11.03,8.36-17.55,10.61-1.27,.44-5.03,1.58-8.05,2.49-1.13,.34-2.18,.66-2.97,.9-.24,.07-.5-.06-.57-.3s.06-.5,.3-.57c.79-.24,1.84-.56,2.98-.9,3.01-.91,6.76-2.05,8.01-2.48,6.39-2.21,12.97-4.82,17.12-10.3,2.37-3.12,3.53-6.94,3.27-10.74-.23-3.33-1.63-6.01-3.12-8.85-.36-.68-.72-1.37-1.06-2.07-1.71-3.47-1.63-7.15-1.55-10.71,.01-.5,.02-1.01,.03-1.52,.05-4.18-.68-8.27-2.19-12.16-2.54-6.56-7.3-12.49-13.41-16.69-6.47-4.45-14.49-6.97-22.56-7.11-7.9-.13-15.79,2.04-22.22,6.12-6.41,4.07-11.37,9.99-13.97,16.67-.77,1.97-1.34,4.01-1.7,6.06-.16,.91-.26,1.85-.35,2.77-.12,1.23-.25,2.5-.54,3.74-.81,3.47-2.66,5.97-4.62,8.63-.45,.6-.9,1.22-1.34,1.85-4.39,6.22-3.68,14.59,1.76,20.82,4.35,4.98,10.4,8.09,16.25,11.1l.92,.47c.22,.12,.31,.39,.2,.61-.1,.19-.31,.28-.5,.24Z"/>
            <path class="cls-1" d="M430.54,89.83c-3.42,1.03-6.57,2.57-9.46,4.67-1.41,1.02-2.69,2.17-3.74,3.56-1,1.32-2.27,2.64-2.46,4.34-.1,.85,.91,1.33,1.59,.99,1.23-.6,2.08-1.88,3.08-2.8,1.15-1.06,2.36-2.1,3.59-3.07,2.44-1.95,5.2-3.48,8.15-4.49,1.95-.67,1.3-3.8-.75-3.19h0Z"/>
            <path class="cls-1" d="M412.22,106.76c-.86,1.69-2.16,3.72-1.77,5.7,.08,.39,.62,.69,.98,.44,1.56-1.08,2.18-3.1,3.02-4.72,.79-1.5-1.46-2.93-2.23-1.42h0Z"/>
            <path class="cls-33" d="M438.64,143.74c-2.48-.31-7.08-.54-8.68,1.83-.38,.57-.09,1.48,.6,1.65,1.28,.31,2.51-.27,3.77-.53,1.41-.28,2.8-.45,4.24-.43,1.64,.03,1.66-2.32,.08-2.52h0Z"/>
            <path class="cls-34" d="M423.24,162.66c-1.1-.24-2.11-.89-2.76-1.81-.84-1.18-1.08-2.76-.62-4.14,.08-.24,.34-.36,.58-.29,.24,.08,.37,.34,.29,.58-.37,1.1-.18,2.37,.49,3.31,.68,.94,1.82,1.53,2.98,1.54,.25,0,.45,.21,.45,.46,0,.25-.21,.46-.46,.45-.32,0-.64-.04-.95-.11Z"/>
          </g>
          <g>
            <path class="cls-8" d="M501.68,186.22c-7.79,1.33-24.38,2.69-40.51-5.29-2.86,1.72-5.88,17.14-7.33,22.02-.43,1.43-2.05,7.17-.83,7.09,5.52,.64,32.44-1.85,50.98-14.08-.81-3.23-1.59-6.48-2.31-9.74Z"/>
            <path class="cls-14" d="M504.76,195.46c-22.96,14.81-50.45,14.72-51.74,14.58-1.22,.08,.2-5.73,.83-7.09,19.17,2.47,33.42,.16,50.91-7.49Z"/>
            <path class="cls-1" d="M468.82,189.94c3.1,1.19,6.31,2.14,9.63,2.76,1.58,.3,3.16,.51,4.78,.54,1.58,.03,3.23,.23,4.69-.38,.89-.37,.91-1.51,.1-1.94-1.24-.65-2.71-.6-4.11-.88-1.61-.31-3.24-.53-4.87-.81-3.12-.54-6.15-1.34-9.09-2.37-2.23-.78-3.26,2.25-1.13,3.07h0Z"/>
            <path class="cls-7" d="M474.76,186.18c-4.69-1.04-9.15-2.56-13.06-4.52-.23-.11-.32-.39-.2-.61,.11-.22,.39-.31,.61-.2,11.41,5.71,27.56,7.64,40.18,4.81,.25-.05,.49,.1,.54,.35s-.1,.49-.35,.55c-8.48,1.9-18.54,1.68-27.73-.37Z"/>
            <path class="cls-7" d="M452.46,210.2c-.22-.05-.38-.26-.35-.5,.03-.25,.25-.43,.5-.4,6.25,.71,11.57-.32,17.73-1.51l1.49-.29c8.41-1.61,16.05-3.89,22.71-6.78,4.1-1.78,7.05-3.42,9.56-5.33,.2-.15,.49-.11,.64,.09s.11,.49-.09,.64c-2.57,1.95-5.57,3.63-9.75,5.44-6.72,2.91-14.42,5.21-22.9,6.84l-1.49,.29c-5.98,1.16-11.62,2.25-18.01,1.52-.02,0-.03,0-.05,0Z"/>
          </g>
          <g>
            <g>
              <path class="cls-24" d="M508.1,202.55l-1.4,.76c-2.03,1.1-4.56,.34-5.66-1.69l-19.48-36.09,8.75-4.72,19.48,36.09c1.1,2.03,.34,4.56-1.69,5.66Z"/>
              <path class="cls-15" d="M503.72,204.16c-.11-.02-.22-.05-.33-.08-1.19-.35-2.16-1.15-2.75-2.24l-19.48-36.09c-.12-.22-.04-.5,.18-.62l8.75-4.72c.11-.06,.23-.07,.35-.04,.12,.03,.21,.11,.27,.22l19.48,36.09c.59,1.09,.72,2.34,.36,3.53-.35,1.19-1.15,2.16-2.24,2.75l-1.4,.76c-.99,.53-2.11,.69-3.2,.45Zm-21.54-38.45l19.27,35.69c.97,1.81,3.24,2.48,5.04,1.51l1.4-.76h0c.87-.47,1.51-1.26,1.8-2.21,.28-.95,.18-1.96-.29-2.83l-19.27-35.69-7.95,4.29Z"/>
            </g>
            <circle class="cls-8" cx="470.68" cy="134.92" r="29.35" transform="translate(236.67 565.02) rotate(-77.44)"/>
            <g>
              <circle class="cls-3" cx="464.51" cy="135.68" r="20.9"/>
              <path class="cls-36" d="M458.3,155.65c-3.78-1.17-7.15-3.39-9.77-6.48-3.6-4.27-5.32-9.68-4.85-15.24h0c.47-5.56,3.08-10.61,7.34-14.21,4.27-3.6,9.68-5.32,15.24-4.85,5.56,.47,10.61,3.08,14.21,7.34,3.6,4.27,5.32,9.68,4.85,15.24-.47,5.56-3.08,10.61-7.34,14.21-4.27,3.6-9.68,5.32-15.24,4.85-1.53-.13-3.01-.42-4.44-.86Zm12.07-38.83c-1.35-.42-2.76-.69-4.2-.81-5.26-.45-10.37,1.18-14.4,4.59-4.03,3.4-6.5,8.17-6.94,13.43h0c-.45,5.26,1.18,10.37,4.59,14.4,3.4,4.03,8.17,6.5,13.43,6.94,5.26,.45,10.37-1.18,14.4-4.59,4.03-3.4,6.5-8.17,6.94-13.43,.45-5.26-1.18-10.37-4.59-14.4-2.47-2.93-5.66-5.03-9.23-6.13Z"/>
              <path class="cls-36" d="M444.87,135.73c-.72,8.46,5.57,15.9,14.02,16.61,8.45,.72,15.9-5.56,16.61-14.02,.72-8.45-5.57-15.89-14.02-16.6-4.47-.38-8.65,1.2-11.7,4.01,5.24,3.48,8.3,8.07,6.84,10.29-1.4,2.13-6.47,1.32-11.55-1.77-.09,.49-.16,.98-.2,1.48Z"/>
            </g>
            <path class="cls-4" d="M499.75,130.76l-48.48,26.17c-2.53-2.23-4.71-4.93-6.4-8.07-1.67-3.09-2.72-6.34-3.21-9.62l48.58-26.23c2.47,2.21,4.61,4.87,6.28,7.96,1.69,3.14,2.75,6.45,3.23,9.78Z"/>
            <path class="cls-4" d="M497.39,147.1l-31.17,16.82c-4.26-.66-8.35-2.25-11.94-4.67l45.76-24.71c.05,4.34-.86,8.63-2.65,12.55Z"/>
            <g>
              <g>
                <path class="cls-24" d="M503.36,117.28c-9.74-18.05-32.27-24.78-50.32-15.04-18.05,9.75-24.78,32.27-15.03,50.32,9.74,18.05,32.27,24.78,50.31,15.04,18.05-9.74,24.78-32.27,15.04-50.31Zm-18.95,43.06c-5.59,3.02-11.85,4.11-18.12,3.14-4.18-.65-8.25-2.24-11.76-4.6-1.04-.7-2.04-1.47-2.96-2.29-2.55-2.25-4.67-4.92-6.31-7.94-1.6-2.97-2.67-6.15-3.16-9.47-1.79-11.99,4.19-23.92,14.86-29.68,6.25-3.38,13.38-4.24,20.04-2.76,4.71,1.05,9.19,3.27,12.93,6.62,2.5,2.23,4.58,4.87,6.18,7.83,1.63,3.03,2.7,6.26,3.18,9.63,.18,1.23,.27,2.48,.29,3.73,.05,4.23-.85,8.51-2.61,12.36-1.32,2.88-3.05,5.49-5.17,7.75-2.12,2.26-4.6,4.18-7.4,5.68Z"/>
                <path class="cls-15" d="M503.77,117.06c-9.85-18.24-32.7-25.07-50.93-15.22-8.84,4.77-15.28,12.69-18.16,22.31-2.88,9.62-1.83,19.79,2.94,28.62,4.77,8.83,12.69,15.28,22.31,18.16,.88,.26,1.76,.49,2.65,.69,8.82,1.96,17.94,.71,25.97-3.63,8.84-4.76,15.28-12.69,18.16-22.31,.26-.88,.49-1.76,.69-2.65,1.96-8.82,.71-17.94-3.62-25.97Zm2.06,28.36c-2.81,9.39-9.1,17.12-17.72,21.77-8.62,4.65-18.54,5.67-27.93,2.87-9.38-2.8-17.12-9.1-21.77-17.72-4.65-8.62-5.67-18.54-2.87-27.93,2.81-9.39,9.1-17.12,17.72-21.77,8.06-4.35,17.05-5.36,25.36-3.51,10.03,2.23,19.08,8.64,24.34,18.37,4.65,8.62,5.67,18.54,2.86,27.92Z"/>
              </g>
              <g>
                <path class="cls-24" d="M500.04,134.54c-.01-1.26-.11-2.52-.29-3.78-.48-3.33-1.54-6.64-3.23-9.78-1.66-3.09-3.8-5.75-6.28-7.96-8.96-7.99-22.31-9.95-33.49-3.92-11.18,6.03-16.87,18.27-15.1,30.15,.49,3.28,1.55,6.53,3.21,9.62,1.7,3.14,3.88,5.84,6.4,8.07,.96,.84,1.97,1.62,3.01,2.33,3.6,2.42,7.68,4.01,11.94,4.67,6.1,.95,12.55-.02,18.41-3.18,5.85-3.16,10.2-8.03,12.76-13.64,1.79-3.92,2.7-8.22,2.65-12.56Zm-3.06,12.37c-1.32,2.88-3.05,5.49-5.17,7.75-2.12,2.26-4.6,4.18-7.4,5.68-5.59,3.02-11.85,4.11-18.12,3.14-4.18-.65-8.25-2.24-11.76-4.6-1.04-.7-2.04-1.47-2.96-2.29-2.55-2.25-4.67-4.92-6.31-7.94-1.6-2.97-2.67-6.15-3.16-9.47-1.79-11.99,4.19-23.92,14.86-29.68,6.25-3.38,13.38-4.24,20.04-2.76,4.71,1.05,9.19,3.27,12.93,6.62,2.5,2.23,4.58,4.87,6.18,7.83,1.63,3.03,2.7,6.26,3.18,9.63,.18,1.23,.27,2.48,.29,3.73,.05,4.23-.85,8.51-2.61,12.36Z"/>
                <path class="cls-15" d="M500.49,134.54c-.01-1.28-.11-2.58-.29-3.84-.5-3.47-1.6-6.82-3.28-9.94-1.65-3.06-3.8-5.78-6.38-8.08-9.33-8.33-23-9.93-34.01-3.99-11.01,5.95-17.18,18.25-15.33,30.62,.51,3.42,1.6,6.7,3.26,9.77,1.68,3.12,3.87,5.88,6.5,8.19,.95,.85,1.98,1.64,3.06,2.36,3.08,2.07,6.58,3.57,10.22,4.38,.63,.14,1.27,.26,1.91,.36,3.23,.5,6.47,.47,9.61-.07,3.14-.54,6.2-1.6,9.08-3.16,5.77-3.12,10.25-7.91,12.96-13.86,1.81-3.97,2.74-8.38,2.69-12.75Zm-8.69,20.12c-2.12,2.26-4.6,4.18-7.4,5.68-5.59,3.02-11.85,4.11-18.12,3.14-4.18-.65-8.25-2.24-11.76-4.6-1.04-.7-2.04-1.47-2.96-2.29-2.55-2.25-4.67-4.92-6.31-7.94-1.6-2.97-2.67-6.15-3.16-9.47-1.79-11.99,4.19-23.92,14.86-29.68,6.25-3.38,13.38-4.24,20.04-2.76,4.71,1.05,9.19,3.27,12.93,6.62,2.5,2.23,4.58,4.87,6.18,7.83,1.63,3.03,2.7,6.26,3.18,9.63,.18,1.23,.27,2.48,.29,3.73,.05,4.23-.85,8.51-2.61,12.36-1.32,2.88-3.05,5.49-5.17,7.75Z"/>
              </g>
            </g>
          </g>
          <g>
            <g>
              <path class="cls-8" d="M494.29,194.56c-.2-.33-.33-.7-.4-1.1-.76-4.61,7.17-12.83,9.91-11.51,2.58,1.25,5.09,5.84,5.92,9.51,.28,1.21,.37,2.32,.22,3.18-.57,3.35-13.59,3.31-15.66-.08Z"/>
              <path class="cls-7" d="M498.16,197.11c-1.95-.43-3.58-1.19-4.27-2.31-.23-.38-.38-.81-.46-1.27-.57-3.48,3.27-8.44,6.27-10.68,1.25-.94,3.01-1.93,4.29-1.31,2.77,1.34,5.31,6.04,6.17,9.82,.3,1.33,.38,2.46,.23,3.35-.2,1.21-1.58,2.09-3.98,2.55-2.32,.45-5.59,.44-8.25-.15Zm5.24-14.82c-.69-.15-1.84,.31-3.14,1.29-3.17,2.37-6.38,6.98-5.92,9.8,.06,.35,.17,.66,.34,.94h0c1.25,2.05,7.4,2.84,11.56,2.04,1.91-.37,3.13-1.04,3.26-1.81,.13-.76,.05-1.8-.22-3-.79-3.49-3.18-8-5.67-9.2-.06-.03-.13-.05-.2-.07Z"/>
            </g>
            <path class="cls-14" d="M494.29,194.56c-.2-.33-.33-.7-.4-1.1,2.68,.89,5.56,1.17,8.36,.78,1.29-.18,2.57-.5,3.79-.95,1.08-.39,2.13-.89,3.12-1.48,.19-.11,.38-.23,.57-.35,.28,1.21,.37,2.32,.22,3.18-.57,3.35-13.59,3.31-15.66-.08Z"/>
            <path class="cls-7" d="M498.16,197.11c-1.95-.43-3.58-1.19-4.27-2.31-.23-.38-.38-.81-.46-1.27-.57-3.48,3.27-8.44,6.27-10.68,1.25-.94,3.01-1.93,4.29-1.31,2.77,1.34,5.31,6.04,6.17,9.82,.3,1.33,.38,2.46,.23,3.35-.2,1.21-1.58,2.09-3.98,2.55-2.32,.45-5.59,.44-8.25-.15Zm5.24-14.82c-.69-.15-1.84,.31-3.14,1.29-3.17,2.37-6.38,6.98-5.92,9.8,.06,.35,.17,.66,.34,.94h0c1.25,2.05,7.4,2.84,11.56,2.04,1.91-.37,3.13-1.04,3.26-1.81,.13-.76,.05-1.8-.22-3-.79-3.49-3.18-8-5.67-9.2-.06-.03-.13-.05-.2-.07Z"/>
          </g>
          <rect class="cls-8" x="336.03" y="378.99" width="191.66" height="45.27" rx="22.64" ry="22.64"/>
          <text class="cls-2" transform="translate(366.82 409.2)"><tspan x="0" y="0">BACK HOME</tspan></text>
          <text class="cls-5" transform="translate(281.07 341.15)"><tspan x="0" y="0">LOOKS LIKE YOU ARE LOST</tspan></text>
          <text class="cls-6" transform="translate(275.66 360.09)"><tspan x="0" y="0">We Can&apos;t Seem To Find The Page You Are Looking For</tspan></text>
          <g>
            <g>
              <path class="cls-23" d="M598.54,603.21c2.24-5.8,1.63-12.63-1.61-17.95-5.99-9.82-20.14-14.77-21.33-26.21-.1-.96-.09-1.98,.36-2.85,1.7-3.29,6.95-1.03,8.76,2.2,1.8,3.23,2.88,7.51,6.39,8.7,4.58,1.55,8.79-4.36,7.74-9.08s-5.1-8.06-8.77-11.21c-17.49-15.02-32.24-36.15-30.78-59.16,.34-5.39,2.58-11.76,7.88-12.78,3.7-.71,7.3,1.61,9.99,4.25,15.71,15.4,14.1,41.41,25.71,60.1,7.66,12.33,21.4,22.47,21.42,36.99,8.78-5.52,18.73-13.32,17.51-23.62-1.04-8.81-9.83-14.33-14.55-21.85-4.06-6.47-4.99-14.81-2.46-22.02,.92-2.62,3.54-5.53,5.96-4.16,.84,.47,1.35,1.36,1.79,2.23,2.56,5.04,4.13,10.77,8.1,14.8,4.05,4.12,10.49,6.42,12.17,11.94,1.34,4.39,.08,10.95,4.52,12.14,1.18,.31,2.44,.04,3.6-.35,6.61-2.23,11.67-8.49,12.45-15.42,.96-8.51-4.12-16.67-10.47-22.41-6.36-5.74-14.05-9.8-20.74-15.16-11.96-9.58-20.45-23.41-23.59-38.41-.98-4.67-1.48-9.54-3.65-13.79-4.96-9.71-17.93-15.02-19.09-25.86-1.08-10.05,10.8-18.25,20.53-15.51,9.73,2.74,15.69,13.5,15.26,23.6-.39,9.07-4.74,19.06,.3,26.61,6.36,9.53,23.49,7.89,27.95,18.44,2.29,5.42-.05,11.73,1.17,17.49,1.88,8.94,11.26,13.77,17.92,20.03,7.77,7.31,12.4,17.86,12.5,28.53-1.11-.19-2.22-.39-3.33-.58"/>
              <path class="cls-18" d="M601.24,548.61c-4.1-4.79-8.88-8.95-13.28-13.46-3.79-3.88-7.31-8.03-10.52-12.41-3.62-4.93-6.97-10.69-6.26-16.77,.14-1.21,.99-2.74,2.14-2.34,.74,.26,.99,1.17,1.14,1.94,1.37,6.94,4.16,13.59,8.21,19.39,4.33,6.2,9.98,11.33,15.31,16.69,4.17,4.19,8.23,8.62,11.22,13.75,2.04,3.51,6.29,11.61,4.11,15.69-3.48,6.5-3.34-5.93-3.79-7.71-1.41-5.54-4.6-10.48-8.27-14.78Z"/>
              <path class="cls-18" d="M619.41,427.03c.37,6.08-.23,12.47,2.38,17.97,1.96,4.11,5.54,7.27,7.56,11.35,3.41,6.91,2.07,15.89,7,21.82,2.23,2.68,5.44,4.32,8.38,6.19,12.42,7.9,20.89,20.77,27.09,34.13,.49,1.06,1,2.16,1.91,2.89,.91,.73,2.36,.94,3.21,.14,.44-.42,.65-1.03,.75-1.63,.37-2.39-.87-4.76-2.44-6.6-1.58-1.84-3.52-3.34-5.01-5.25-2.73-3.48-3.74-7.99-5.87-11.87-6.34-11.51-21.56-15.95-27.69-27.57-3.18-6.04-3.65-13.61-8.4-18.5-1.55-1.59-3.49-2.82-4.75-4.66-3.04-4.46-.99-10.41-.39-15.77,.68-6.14-.8-12.5-4.13-17.7-2.95-4.61-8.02-3.38-4.35,1.82,2.92,4.15,4.45,8.08,4.77,13.23Z"/>
              <path class="cls-23" d="M716.6,516.1c-.62-.94-.7-2.15-.58-3.27,.58-5.48,5.35-9.95,5.48-15.47,.05-1.96-.51-3.89-1.04-5.78-2.27-8.16-4.08-16.72-2.55-25.05,.42-2.28,1.13-4.6,2.72-6.28,1.34-1.41,3.25-2.26,5.19-2.31,1.05-.03,2.15,.19,2.99,.83,1.9,1.45,1.78,4.3,1.53,6.68-.56,5.4-.75,10.9,.31,16.22,.61,3.05,1.62,6.03,1.79,9.14,.31,5.39-1.92,10.56-3.9,15.59-1.98,5.03-3.78,10.47-2.6,15.75"/>
              <path class="cls-18" d="M723.01,504.06c1.38-3.87,3.08-7.74,3.13-11.85,.06-4.67-2.04-9.07-3.12-13.62s-.84-10.04,2.79-12.98c.63,.67,.37,1.73,.16,2.62-1.73,7.07,1.45,14.33,2,21.59,.35,4.57-.37,9.13-1.57,13.53-.9,3.3-2.16,10.12-4.63,12.4-1.59-3.45,.04-8.32,1.24-11.68Z"/>
              <path class="cls-18" d="M633.54,529.14c3.6,4.81,8.34,8.63,12.21,13.22,.67,.8,1.7,1.71,2.62,1.21,.43-.23,.66-.72,.78-1.2,.28-1.19-.07-2.51-.89-3.41-.64-.71-1.52-1.15-2.35-1.62-4.42-2.55-7.82-6.62-10.32-11.07-2.2-3.91-3.14-10.06-5.89-13.29-4.12,2.8,1.78,13.39,3.85,16.16Z"/>
              <path class="cls-23" d="M705.11,526.83c-3.49-5.61-2.28-13-4.87-19.08-2.75-6.45-9.32-10.44-13.03-16.39-2.53-4.06-3.62-9-3.04-13.75,.28-2.28,1.74-5.06,3.99-4.62,1.28,.25,2.1,1.48,2.69,2.64,2.43,4.73,3.64,10.11,6.82,14.37,3.02,4.05,7.65,6.83,10.02,11.29,4.77,8.95-1.02,21.52,5.37,29.39"/>
              <path class="cls-18" d="M700.63,501.05c-1.43-1.82-3.11-3.43-4.69-5.12-2.54-2.73-4.83-5.68-6.83-8.82-.45-.71-.89-1.65-.4-2.34,.49-.69,1.62-.54,2.23,.04,.61,.58,.86,1.44,1.16,2.23,2.2,5.69,8.06,9.07,11.34,14.21,2.44,3.81,3.66,8.82,3.68,13.31-1.05,.03-4.88-11.46-6.5-13.51Z"/>
              <path class="cls-23" d="M85.74,593.9c3.67-3.99,6.23-8.96,7.55-14.21,2.77-10.96,.24-22.45-1.3-33.64-1.54-11.2-1.83-23.49,4.59-32.79,1.97-2.85,5.23-5.5,8.56-4.57,2.38,.66,3.96,3.05,4.4,5.47,.44,2.43-.06,4.92-.58,7.33-1.2,5.45-2.59,10.96-2.33,16.53,.32,6.84,3.11,13.28,5.17,19.81,2.06,6.53,3.38,13.76,.82,20.11-1.03,2.55-2.65,4.86-3.47,7.49s-.63,5.88,1.48,7.65c1.22,1.02,2.86,1.38,4.44,1.47,7.87,.47,15.65-5.37,17.4-13.06,1.46-6.43-.94-13.13-.35-19.7,.36-3.94,1.82-7.78,4.18-10.97,3.34-4.51,8.41-7.71,10.99-12.7,4.29-8.31,.37-18.79,3.55-27.59,1.87-5.19,6-9.19,10-13,3.64-3.47,7.29-6.94,10.93-10.41,4.62-4.4,10.05-9.11,16.42-8.65,3.84,.28,7.47,2.64,9.29,6.03,1.82,3.4,1.77,7.72-.13,11.07-3.35,5.91-10.86,7.61-16.8,10.9-6.52,3.61-11.7,9.9-13.14,17.22-.69,3.52-.53,7.21-1.63,10.63-1.61,5-5.67,8.75-9.4,12.43-5.49,5.41-10.96,12.13-10.36,19.81,.23,2.95,1.36,5.74,2.08,8.61,3.39,13.38-2.98,28.64-14.88,35.64"/>
              <path class="cls-23" d="M172.19,600.05c.27-7.6-9.21-11.92-11.44-19.19-.79-2.56-.61-5.31-.35-7.98,.34-3.41,.8-6.82,1.38-10.2,.6-3.49,1.73-7.47,4.98-8.87,.95-.41,2.03-.54,3.02-.28,2.49,.67,3.71,3.54,3.79,6.11,.08,2.57-.62,5.14-.38,7.7,.66,7.06,7.82,11.4,11.78,17.28,3.88,5.75,4.6,13.5,1.84,19.87"/>
              <path class="cls-18" d="M175.12,587.11c-1.67-2.28-3.82-4.22-5.26-6.65-2.59-4.36-2.64-9.71-2.61-14.78,0-1.15,.49-2.72,1.62-2.52,1.11,.2,1.05,1.79,.85,2.91-.78,4.35,1,8.77,3.29,12.56,3.2,5.29,9.27,11.7,8.07,18.37-3.21-.91-4.04-7.3-5.94-9.89Z"/>
              <path class="cls-18" d="M131.87,597.6c7.06-6.36,10.58-16.43,9.02-25.8-.72-4.33-2.45-8.61-1.88-12.96,1.36-10.28,14.4-15.44,16.95-25.49,1.11-4.37,.02-8.96-.08-13.47-.3-13.83,10.04-27.17,23.52-30.32,1.09-.26,2.48-.34,3.09,.6,.92,1.43-1.01,2.96-2.59,3.61-8.12,3.34-16.39,8.57-19.03,16.94-2.18,6.91-.06,14.61-2.18,21.53-3.33,10.86-16.32,17.56-17.14,28.89-.27,3.7,.87,7.34,1.36,11.02,1.54,11.53-3.8,23.71-13.32,30.38"/>
              <path class="cls-18" d="M103.19,561.46c-1.52-6.68-5.26-12.62-7.56-19.07-2.3-6.45-2.94-14.24,1.29-19.63,.65-.82,1.64-1.64,2.64-1.3-1.46,6.18-2.93,12.59-1.66,18.81,1.56,7.61,7.04,13.93,8.78,21.5,1.6,6.95,.07,16.23-3.95,22.15-.99-2.41,.15-5.49,.57-8.01,.81-4.8,.97-9.67-.11-14.44Z"/>
            </g>
            <g>
              <path class="cls-22" d="M832.75,451.08l-2.84,25.75-74,22.24s-17.12-21.66-19.73-25.71c3.43-5.8,8.15-6.85,10.35-7,.77-.06,1.23-.01,1.23-.01-.05-.06-.09-.13-.13-.19-.95-1.4-6.65-10.14-4.8-14.9,10.42-7.12,17.08-2.2,17.08-2.2l1.73,6.36s19.67-10.12,31.24-4.05c-.87-9.25,1.45-15.32,1.45-15.32,0,0,7.81-2.97,11.86,2.56-.29,4.37,2.6,13.92,2.6,13.92,0,0,10.42-2.6,14.76,1.16,4.62-3.47,9.2-2.61,9.2-2.61Z"/>
              <path class="cls-31" d="M745.06,451.35c-.38,.19-.8,.55-.57,.88,.16,.23,.53,.24,.84,.22,2.32-.12,4.65-.24,6.97-.37,1.66-.09,3.33-.18,4.97-.45,.57-.1,1.27-.37,1.22-.86-.02-.19-.16-.36-.32-.49-1.23-.97-4.35-.89-5.95-.8-2.49,.13-5,.81-7.15,1.88Z"/>
              <path class="cls-31" d="M738.94,473.31c-.04,.08-.08,.19-.01,.25,.04,.05,.11,.05,.17,.05,.61-.02,1.18-.32,1.72-.61,1.31-.68,2.66-1.27,4.04-1.77,1-.36,2.06-.69,2.82-1.44,.1-.1,.19-.21,.21-.34,.02-.17-.09-.32-.2-.45-2.89-3.18-7.55,1.85-8.75,4.31Z"/>
              <path class="cls-31" d="M767.82,456.24c6.06-.86,12.17-1.43,18.29-1.71,.71-.03,1.51-.1,1.98-.64-.43-1.12-1.84-1.43-3.03-1.55-5.74-.55-12.71-.2-17.23,3.9Z"/>
              <path class="cls-31" d="M796.72,437c1.37,.65,2.74,1.3,4.1,1.95,.9,.43,1.9,.87,2.87,.64,.15-.04,.31-.09,.4-.22,.25-.31-.05-.75-.34-1.02-.72-.66-1.54-1.2-2.42-1.62-1.27-.59-3.59-1.09-4.62,.27Z"/>
              <path class="cls-31" d="M812.04,455.05c-.14,.21-.25,.47-.17,.71,.09,.27,.38,.41,.64,.52,2.22,.93,4.56,1.88,6.95,1.59,.55-.07,1.11-.21,1.56-.54,.45-.33,.76-.88,.69-1.44-.07-.5-.43-.91-.82-1.23-2.07-1.72-7.17-2.19-8.85,.39Z"/>
              <path class="cls-31" d="M821.48,474.52c-.38,2.77-.75,5.78,.63,8.22,.39-1.41,.5-2.88,.6-4.34,.44-6.1,.88-12.2,1.32-18.31,.1-1.32,.74-4.7-.2-5.73-.77,.54-.54,3.68-.62,4.64-.15,1.74-.32,3.48-.5,5.22-.36,3.44-.77,6.88-1.24,10.3Z"/>
              <path class="cls-31" d="M811.29,464.92c.72,3.52,1.43,7.04,2.31,10.53,.71,2.81,1.51,5.59,2.44,8.34,.09,.28,.17,.64-.06,.83-.09,.07-.2,.1-.32,.11-.58,.03-1.09-.44-1.36-.96-.27-.52-.38-1.11-.63-1.64-1.12-2.32-4.51-2.68-5.84-4.89-.65-1.07-.68-2.39-.69-3.65-.03-2.61-.06-5.22-.08-7.83,0-.62-.01-1.25-.2-1.85-.38-1.21-1.45-2.07-2.46-2.84,.21-.51,.83-.69,1.37-.86,.53-.17,1.13-.51,1.14-1.06,0-.38-.29-.69-.52-1.01-.85-1.19-.76-2.77-.82-4.23-.02-.49-.07-1-.29-1.44-.47-.93-1.57-1.32-2.55-1.7-.98-.38-2.05-.96-2.25-1.99,1.16,.14,2.34,.05,3.46-.25,.37-.1,.79-.27,.9-.64,.05-.17,.02-.34,0-.52-.31-2.12-.23-4.3,.23-6.39,.14-.63,.28-2.4,1.03-1.64,.51,.52,.58,2.85,.73,3.59,.95,4.66,1.9,9.33,2.85,13.99,.54,2.66,1.08,5.32,1.62,7.98Z"/>
              <path class="cls-31" d="M791.38,460.66c-.4,2.29-.28,4.63-.16,6.95,.1,1.84,.2,3.71,.75,5.47,.57,1.83,1.59,3.49,2.35,5.25,1.61,3.72,2.03,7.84,3.46,11.63-.45-1.36-1.74-2.24-2.61-3.38-1.17-1.52-1.58-3.47-1.96-5.35-2.98,0-5.96-.01-8.93-.02-1.12,0-2.26,0-3.35-.27-1.09-.26-2.15-.82-2.81-1.73,1.95-.45,3.98-.21,5.97-.11s4.1,.02,5.83-.98c.24-.14,.48-.31,.57-.57,.08-.23,.02-.48-.04-.72-.37-1.49-.66-2.99-.89-4.5-.16-1.09-.29-2.2-.17-3.3,.07-.64,.23-1.28,.13-1.91-.2-1.31-1.4-2.21-2.57-2.83,.88-.39,1.82-.83,2.34-1.64,.37-.57,.49-1.26,.61-1.93,.57-3.2,1.95-6.52,3-9.34-.02,2.98-1.26,7.86-1.51,9.28Z"/>
              <path class="cls-31" d="M775,485.11c-.34-.19-.7,.34-1.09,.3-.19-.02-.33-.17-.45-.31-3.97-4.58-5.74-10.62-8.58-15.97-.14-.26-.29-.54-.55-.7-.7-.45-1.84,.14-2.39-.49,.85,.07,1.56-.76,1.66-1.61s-.24-1.68-.6-2.45c-1.07-2.29-2.54-4.6-4.87-5.56,.58,.24,1.98-2.54,2.13-2.94,.45-1.21-.44-5.08-.37-6.32,2.1,4.18,3.5,11.75,5.23,16.15,1.73,4.4,3.69,8.71,5.89,12.89,1.25,2.38,2.57,4.72,3.97,7.01Z"/>
              <path class="cls-31" d="M764.98,486.81c-2.37-.53-4.47-1.93-6.2-3.62-1.73-1.7-3.13-3.7-4.52-5.68-2.21-3.16-4.41-6.31-6.62-9.47-.39-.55-.77-1.1-1.11-1.68,.77-.06,1.23-.01,1.23-.01,1.79,2.46,3.57,4.93,5.36,7.39,2.03,2.82,4.08,5.64,6.49,8.15,1.68,1.75,3.53,3.34,5.37,4.92Z"/>
            </g>
            <g>
              <path class="cls-19" d="M198.4,565.67l13.4,24.28,112.64,11.91s18.77-35.85,21.43-42.4c-6.52-7.42-13.6-7.65-16.81-7.27-1.13,.12-1.77,.32-1.77,.32,.06-.1,.09-.21,.14-.31,.99-2.27,6.82-16.41,2.86-22.77-16.94-7.42-25.2,1.48-25.2,1.48l-.76,9.63s-31.08-9.23-46.1,2.66c-1.26-13.56-6.25-21.67-6.25-21.67,0,0-12.06-2.15-16.39,6.91,1.61,6.22,.04,20.76,.04,20.76,0,0-15.72-.91-20.94,5.68-11.54-3.01-16.27,10.77-16.27,10.77Z"/>
              <path class="cls-17" d="M327.1,530.18c.59,.17,1.3,.58,1.07,1.1-.17,.37-.7,.49-1.14,.55-3.38,.46-6.76,.91-10.14,1.37-2.42,.33-4.85,.65-7.28,.7-.85,.02-1.93-.18-2-.91-.03-.28,.13-.57,.33-.8,1.5-1.73,6.03-2.46,8.36-2.78,3.62-.5,7.42-.2,10.81,.77Z"/>
              <path class="cls-17" d="M341.88,560.14c.08,.11,.16,.25,.09,.36-.05,.08-.15,.1-.24,.12-.89,.14-1.78-.15-2.64-.4-2.07-.62-4.17-1.11-6.31-1.44-1.54-.24-3.16-.44-4.46-1.31-.17-.11-.34-.25-.4-.44-.07-.24,.04-.49,.17-.7,3.3-5.37,11.38,.61,13.78,3.82Z"/>
              <path class="cls-17" d="M295.64,543.42c-8.97,.41-17.92,1.25-26.81,2.51-1.04,.15-2.2,.27-3.02-.38,.32-1.73,2.26-2.57,3.95-3.06,8.12-2.35,18.25-3.75,25.88,.93Z"/>
              <path class="cls-17" d="M248.78,523.57c-1.79,1.31-3.59,2.62-5.38,3.92-1.19,.86-2.5,1.77-3.96,1.7-.23-.01-.47-.05-.64-.2-.44-.38-.14-1.1,.21-1.56,.86-1.14,1.89-2.15,3.05-2.99,1.67-1.2,4.88-2.55,6.73-.87Z"/>
              <path class="cls-17" d="M231.62,553.72c.25,.27,.48,.61,.44,.97-.05,.42-.44,.7-.79,.93-2.94,1.94-6.06,3.95-9.57,4.18-.81,.05-1.66,0-2.39-.36-.73-.36-1.34-1.07-1.38-1.88-.04-.74,.37-1.42,.84-1.99,2.52-3.05,9.73-5.11,12.85-1.85Z"/>
              <path class="cls-17" d="M223.31,584.33c1.3,3.89,2.66,8.13,1.32,12.01-.95-1.93-1.5-4.02-2.05-6.09-2.29-8.67-4.59-17.34-6.88-26.01-.5-1.88-2.35-6.56-1.28-8.31,1.26,.56,1.78,5.15,2.16,6.52,.69,2.47,1.4,4.93,2.14,7.38,1.45,4.86,2.98,9.69,4.59,14.5Z"/>
              <path class="cls-17" d="M235.39,567.74c-.07,5.26-.15,10.53-.46,15.79-.25,4.24-.66,8.47-1.24,12.67-.06,.43-.07,.97,.31,1.18,.15,.08,.32,.09,.49,.07,.85-.11,1.45-.93,1.69-1.75s.24-1.7,.46-2.53c.98-3.65,5.77-5.08,7.08-8.62,.64-1.72,.32-3.63,0-5.44-.67-3.77-1.34-7.54-2.01-11.3-.16-.9-.32-1.81-.21-2.71,.22-1.85,1.52-3.37,2.76-4.76-.45-.68-1.39-.77-2.2-.86-.81-.09-1.77-.42-1.93-1.22-.11-.55,.23-1.08,.47-1.59,.9-1.94,.34-4.2,.03-6.32-.1-.71-.17-1.46,.03-2.15,.42-1.47,1.9-2.33,3.21-3.14,1.3-.81,2.69-1.94,2.7-3.47-1.63,.51-3.35,.71-5.05,.58-.56-.04-1.21-.18-1.46-.68-.11-.23-.12-.49-.13-.74-.13-3.14-.84-6.25-2.07-9.15-.37-.86-1.05-3.39-1.93-2.08-.6,.89-.06,4.26-.08,5.37-.1,6.98-.2,13.95-.29,20.93-.06,3.98-.11,7.96-.17,11.94Z"/>
              <path class="cls-17" d="M262.91,556.18c1.2,3.18,1.66,6.59,2.12,9.97,.36,2.68,.72,5.4,.41,8.09-.32,2.8-1.34,5.46-1.96,8.2-1.3,5.79-.79,11.85-1.83,17.69,.28-2.08,1.89-3.7,2.84-5.58,1.27-2.51,1.33-5.43,1.37-8.25,4.29-.82,8.58-1.64,12.86-2.46,1.62-.31,3.25-.62,4.75-1.3,1.5-.68,2.88-1.77,3.58-3.26-2.93-.12-5.78,.78-8.63,1.46s-5.9,1.15-8.66,.18c-.38-.13-.78-.32-.98-.67-.18-.31-.16-.69-.14-1.05,.12-2.24,.14-4.49,.06-6.73-.06-1.62-.18-3.25-.66-4.8-.28-.9-.67-1.78-.71-2.72-.07-1.94,1.41-3.57,2.94-4.77-1.38-.32-2.84-.7-3.81-1.72-.69-.72-1.05-1.69-1.4-2.62-1.69-4.46-4.58-8.86-6.86-12.64,.83,4.29,3.94,10.97,4.7,12.96Z"/>
              <path class="cls-17" d="M293.14,586.95c.44-.37,1.1,.3,1.65,.13,.26-.08,.43-.34,.57-.57,4.47-7.68,5.38-16.85,8.01-25.34,.13-.42,.28-.86,.59-1.16,.89-.84,2.68-.29,3.3-1.35-1.2,.33-2.45-.67-2.83-1.86-.38-1.19-.11-2.48,.19-3.69,.92-3.59,2.41-7.32,5.51-9.34-.77,.5-3.54-3.12-3.87-3.66-.98-1.61-.75-7.43-1.19-9.2-1.88,6.59-1.85,17.88-3.14,24.69s-2.95,13.54-4.98,20.17c-1.15,3.77-2.42,7.49-3.81,11.18Z"/>
              <path class="cls-17" d="M308.04,586.67c3.27-1.41,5.91-4,7.95-6.9,2.03-2.92,3.5-6.18,4.97-9.41,2.32-5.15,4.64-10.29,6.96-15.44,.41-.9,.81-1.79,1.14-2.72-1.13,.12-1.77,.32-1.77,.32-1.91,4.03-3.8,8.07-5.71,12.1-2.16,4.61-4.34,9.23-7.13,13.5-1.94,2.98-4.18,5.77-6.4,8.55Z"/>
            </g>
            <g>
              <path class="cls-32" d="M191.84,590.7c-23.69,8.28-49.46,7.43-74.54,6.48-4.35-.16-8.83-.36-12.81-2.13-10.22-4.56-6.8-16.28-.94-24.17,1.41-1.9,2.97-3.58,4.51-4.88,2.1-1.78,4.64-2.81,7.32-3.48,2.23-.55,4.56-.86,6.83-1.14,3-.37,6.03-.74,9.07-.97,3.04-.25,6.09-.37,9.1-.24,3.35,.14,6.66,.6,9.9,1.53,4.03,1.16,7.8,3.03,11.41,5.17,1.53,.91,3.04,1.87,4.53,2.84,3.32,2.17,6.57,4.46,9.74,6.86,5.66,4.29,11.01,8.96,15.88,14.13Z"/>
              <path class="cls-27" d="M149.21,589.08c-3.7-.73-7.5-.97-11.26-.7-1.15,.08-2.32,.21-3.44-.05-1.02-.25-1.95-.8-2.77-1.47-2.82-2.28-4.49-5.79-7.49-7.84-4-2.73-9.35-2.22-13.96-3.76-2.57-.85-4.9-2.39-6.74-4.38,1.41-1.9,2.97-3.58,4.51-4.88,2.1-1.78,4.64-2.81,7.32-3.48,.03,.45,.06,.91,.11,1.36,.22,2.11,.96,4.38,2.78,5.47,1.81,1.1,4.31,.78,5.95,2.13,.73,.6,1.2,1.46,1.73,2.24,5.3,7.77,17.5,7.91,23.26,15.36Z"/>
              <path class="cls-27" d="M131.28,560.41c3.04-.25,6.09-.37,9.1-.24,.03,.36,.1,.72,.2,1.07,.62,2.14,2.11,3.9,3.51,5.64,1.39,1.73,2.78,3.61,3.12,5.81-1.33,.08-2.66,.15-3.99,.22-.28,.01-.57,.02-.81-.1-.28-.14-.45-.42-.58-.7-1.11-2.37-.51-5.7-2.66-7.19-.81-.57-1.84-.69-2.79-.96-2.04-.56-3.86-1.85-5.1-3.55Z"/>
              <path class="cls-27" d="M175.96,576.57c-.2,.03-.4,.04-.6,.06-3.44,.28-6.91,.12-10.31-.49-3.14-.56-6.51-1.47-9.41-.15-.88,.4-1.74,1.13-1.76,2.09,0,.42,.15,.82,.32,1.2,1.14,2.71,2.65,5.26,4.47,7.57-3.47-.46-6.99-.52-10.47-.18-.32-1.64,.42-3.28,.68-4.93,.26-1.64-.3-3.75-1.93-4.09,4.44-3.11,8.88-6.22,13.33-9.33,.56-.39,1.16-.85,1.41-1.45,1.53,.91,3.04,1.87,4.53,2.84,3.32,2.17,6.57,4.46,9.74,6.86Z"/>
            </g>
            <g>
              <path class="cls-29" d="M452.2,563.94c-3.9-6.18-8.29-12.09-11.34-18.73-4.52-9.83-5.93-20.91-10.83-30.56-3.27-6.44-8.01-12.06-11.15-18.57-3.15-6.5-4.5-14.57-.8-20.77,4.72,10.58,9.44,21.16,14.16,31.74,4.74,10.63,9.49,21.26,14.6,31.72,8.21,16.81,17.4,33.25,23.38,50.98,3.14-5.1-.68-11.41-2.96-16.95-3.97-9.63-3.14-20.72-7.09-30.36-2.67-6.51-7.38-11.98-10.46-18.31-5.89-12.14-5.43-26.68-11.74-38.61-2.83-5.34-6.92-9.97-9.37-15.5-2.45-5.53-2.86-12.65,1.3-17.04,4.16,9.04,8.31,18.08,12.47,27.13,7.97,17.33,15.95,34.72,21.69,52.91,3.73,11.81,6.49,23.92,8.26,36.18,1.62,11.26,2.48,22.9,7.31,33.2,.18-6.92-.24-13.85-.67-20.76-.99-16.13-1.98-32.35-5.75-48.07-3.11-12.99-8.04-26.95-2.69-39.18,9.55,29.54,13.74,60.81,12.3,91.82-.26,5.61-.55,11.77,2.84,16.25,7.16-13.1,6.24-28.95,5.12-43.84-1.07-14.22-2.14-28.52-5.53-42.37-2.37-9.69-5.85-19.1-7.57-28.92s-1.54-20.38,3.11-29.2c.69-1.31,2.18-2.76,3.41-1.93-.45,6.71,.67,13.52,3.25,19.74,1.39,3.35,3.19,6.52,4.51,9.89,1.81,4.59,2.7,9.48,3.47,14.36,5.16,32.85,4.64,66.59-1.53,99.27,4.83-8.08,9.67-16.17,14.5-24.25,3.56-5.96,7.18-12.03,8.84-18.78,1.01-4.1,1.3-8.4,2.91-12.3,1.62-3.9,5.07-7.47,9.29-7.49-2.32,15.12-8.92,29.04-15.92,42.48-3.55,6.83-7.29,13.56-10.72,20.45-2.79,5.6-4.71,14.69-8.76,19.32-8.05,9.2-19.59,.38-23.08-8.56-6.26-15.99-9.38-31.5-18.77-46.41Z"/>
              <g class="cls-20">
                <rect class="cls-29" x="410.88" y="448.93" width="128.02" height="169.09"/>
                <path class="cls-12" d="M528.92,531.82c-1.1,12-6.41,23.16-11.65,34.01-7.35,15.25-14.77,30.61-24.83,44.23-1.33,1.81-2.74,3.62-3.43,5.76-.7,2.13-.56,4.69,.96,6.35,2.03,2.22,5.65,1.99,8.41,.8,4.88-2.1,8.44-6.51,10.82-11.26,2.38-4.75,3.74-9.94,5.51-14.95,4.03-11.42,10.15-22,14.4-33.33s6.55-24.04,2.65-35.5"/>
                <path class="cls-12" d="M485.4,450.33c-4.28,5.84-5.83,13.59-4.12,20.63,1.31,5.38,4.42,10.49,3.97,16-.34,4.2-2.57,9.02,.19,12.2,.74,.85,1.75,1.43,2.53,2.23,2.58,2.64,2.16,6.85,2.33,10.54,.18,4,1.25,7.91,2.18,11.8,2.85,11.97,4.43,24.24,4.71,36.55,.09,4.05,.12,8.37,2.38,11.74,2.1-4.82,2.69-10.15,3.2-15.38,1.74-17.64,2.93-35.34,3.58-53.05,.42-11.46,.19-24.12-7.42-32.69-2.03-2.29-4.54-4.21-6.08-6.85-2.08-3.56-2.13-7.91-2.11-12.04,0-3.08,.02-6.15,.03-9.23"/>
                <path class="cls-12" d="M469.91,508.51c4.56,19.71,10.43,39.63,8.62,59.78-.37,4.08-1.05,8.23-.15,12.23-2.61-9.16-5.23-18.35-6.66-27.77-1.06-6.97-1.47-14.07-3.26-20.89-1.09-4.14-2.67-8.13-3.69-12.29-1.92-7.81-2.2-17.47,.76-25.1,1.4-3.61,2.61-2.63,3.12,.97,.62,4.37,.22,8.61,1.25,13.06Z"/>
                <path class="cls-12" d="M433.22,466.55c2.85,7.45,5.72,14.92,9.35,22.03,2.35,4.59,5.07,9.24,5.29,14.39,.1,2.4-.36,4.84,.1,7.2,.61,3.2,2.8,5.83,4.65,8.51,4.02,5.8,6.72,12.39,9.39,18.92,2.78,6.81,5.57,13.61,8.35,20.42-.76-7.48-2.8-14.76-4.67-22.05-3.33-12.97-6.15-26.07-8.46-39.26-1.07-6.12-2.06-12.35-4.62-18.01-2.04-4.51-5.01-8.51-7.62-12.71-2.13-3.43-8.3-18.66-12.67-18.92-7.01-.41-.06,16.94,.91,19.48Z"/>
                <path class="cls-12" d="M425.17,496.97c2.81,7.37,6.15,14.54,9.67,21.59,1.69,3.38,3.46,6.88,3.59,10.66,.05,1.52-.17,3.06,.15,4.55,.32,1.49,1.15,2.82,1.97,4.11,7.45,11.7,15.22,23.2,23.29,34.49,.48-2.61-.57-5.23-1.6-7.67-7.69-18.15-16.1-36.03-22.29-54.74-2.38-7.22-4.46-14.6-8.11-21.27-1.55-2.82-7.56-15.45-10.96-10.82-3.12,4.24,2.77,14.95,4.29,19.1Z"/>
              </g>
            </g>
            <path class="cls-19" d="M-6.58,550.64c2.64-7.13,5.31-14.92,3.01-22.16-1.04-3.29-3.04-6.18-4.94-9.06-3.85-5.83-7.5-12.11-8.17-19.06-.54-5.59,.88-11.31-.27-16.81-1.57-7.5-7.68-13.47-9.11-21-.47-2.5-.36-5.24,1.01-7.38s4.25-3.44,6.58-2.42c2.47,1.07,3.42,4.12,3.46,6.81,.04,2.69-.51,5.45,.19,8.05,.78,2.91,3.1,5.64,2.36,8.55-.17,.65-.48,1.28-.48,1.95,.01,1.84,2.58,2.76,4.18,1.85,1.6-.92,2.27-2.86,2.53-4.68,.26-1.85,.55-4.21,2.35-4.72,1.89-.54,3.51,1.75,3.45,3.71-.09,3.05-2.42,5.55-4.84,7.4-2.42,1.85-5.17,3.45-6.82,6.02-2.16,3.37-1.97,7.7-1.3,11.64,.31,1.84,1.18,4.08,3.04,4.15,1.95,.08,2.99-2.39,2.78-4.33-.21-1.94-1.09-3.87-.65-5.77,.9-3.88,6.28-4.68,8.63-7.9,.93-1.28,1.57-3.09,3.13-3.4,2.3-.45,3.44,3.09,2.21,5.08-1.23,1.99-3.56,3.01-5.16,4.72-2.73,2.91-3,7.38-5.19,10.72-1.25,1.91-3.2,3.71-2.97,5.98,.12,1.24,.91,2.31,1.66,3.3,2.74,3.62,5.47,7.24,8.21,10.87,.46,.6,.93,1.22,1.6,1.57,1.19,.62,2.72,.19,3.74-.69,2.54-2.19,2.28-6.24,1.04-9.36-1.24-3.12-3.24-6.02-3.57-9.36-.55-5.73,3.95-10.78,4.48-16.51,.64-6.98-4.55-12.93-7.72-19.18-1.29-2.54-2.35-5.36-4.58-7.14-1.44-1.15-3.24-1.74-4.76-2.77-4.76-3.21-5.81-9.65-6.44-15.36-.16-1.4-.3-2.87,.22-4.17s1.95-2.37,3.31-1.97c1.82,.53,2.1,2.93,2.19,4.82,.15,3.08,.79,6.31,2.83,8.62,1.55,1.75,3.72,2.78,5.61,4.15s3.61,3.4,3.49,5.73c1.94-.13,3.14-2.19,3.56-4.09,.42-1.9,.44-3.97,1.55-5.56,1.1-1.6,3.92-2.15,4.82-.43,.34,.66,.3,1.45,.18,2.19-.62,3.76-2.96,7.04-5.67,9.72-1.01,1-2.15,2.07-2.35,3.48-.41,3,3.63,5.23,3.28,8.24,1.5,.08,2.8-1.12,3.46-2.48s.86-2.87,1.36-4.29c1.09-3.11,3.55-5.62,4.45-8.79,1.15-4.05-.51-8.45-3.13-11.74-1.83-2.3-4.19-4.33-5.07-7.13-.88-2.8,.78-6.66,3.71-6.53,2.6,.11,4.03,3.04,4.62,5.57s1.16,5.49,3.48,6.68c1.19,.61,2.61,.6,3.87,1.08,1.25,.48,2.39,1.9,1.77,3.09-.87,1.68-3.72,.67-5.14,1.93-1.59,1.4-.12,3.91,.46,5.95,.93,3.25-.84,6.65-2.92,9.31-2.08,2.66-4.61,5.14-5.58,8.38-.45,1.5-.53,3.09-.62,4.66l-.59,11.33c2.45,.53,4.62-1.92,5.15-4.37,.53-2.45,.03-5.01,.38-7.49,.35-2.48,2.04-5.15,4.55-5.17,1.59,5.49,.26,11.74-3.43,16.1-2.19,2.59-5.18,4.61-6.55,7.71-2.48,5.64,1.35,11.9,5,16.86,.54,.74,1.14,1.52,2,1.83,1.16,.42,2.45-.13,3.42-.89,2.63-2.05,3.81-5.45,4.28-8.75,.46-3.3,.34-6.67,.99-9.93,.85-4.26,3.01-8.27,3.14-12.62,.22-7.23-5.22-14.15-3.49-21.17,1.27-5.15,6.21-9.1,6.42-14.4,.07-1.81,.01-4.31,1.79-4.67,.54-.11,1.1,.06,1.6,.31,2.7,1.38,3.58,4.94,3.02,7.93s-2.19,5.63-3.34,8.44c-2.18,5.34-2.58,11.39-1.12,16.97,2.13-.37,4.38,0,6.27,1.04,.55,.3,1.1,.69,1.32,1.28,.48,1.3-.96,2.56-2.33,2.78-1.37,.23-2.82-.08-4.12,.4-1.74,.64-2.72,2.53-3,4.35-.28,1.83-.02,3.69-.12,5.54-.37,6.99-5.74,13.26-5.01,20.23,3.57-.36,5.21-4.5,7.74-7.06,1.18-1.19,2.64-2.08,3.8-3.28,1.79-1.85,2.78-4.31,3.73-6.7,2.44-6.16,4.93-12.88,3.11-19.26-.68-2.41-1.95-4.6-3.02-6.87-1.42-2.99-2.52-6.51-1.22-9.56,1.3-3.05,6.03-4.53,7.98-1.85,.81,1.11,.92,2.56,1.01,3.94,.86,13.8,1.37,28.89-6.85,40.02,.98,1.39,1.96,2.78,2.93,4.16,.4,.57,.83,1.24,.67,1.92-.39,1.71-2.92,.88-4.62,.4-3.17-.9-6.44,1.13-8.69,3.53s-4.05,5.32-6.84,7.07c-2.7,1.69-6.08,2.1-8.67,3.97-1.41,1.02-2.59,2.82-1.92,4.43,.56,1.34,2.14,1.91,3.58,2.08,2.89,.34,5.9-.37,8.33-1.97,1.97-1.3,3.54-3.14,5.41-4.57,1.88-1.44,4.31-2.49,6.58-1.84,1.57,.44,3.02,1.66,4.61,1.35,.9-.18,1.62-.81,2.26-1.47,3.3-3.36,5.52-7.76,6.26-12.41,.22-1.38,.35-2.87,1.22-3.97,1.59-2,5.09-1.49,6.61,.57,1.52,2.06,1.33,4.98,.26,7.3-1.08,2.32-2.91,4.18-4.64,6.06-2.47,2.68-4.83,5.5-7.78,7.63s-6.65,3.52-10.23,2.87c-.7,2.12,.01,4.45-.39,6.65-.4,2.19-3.11,4.26-4.73,2.72-1.82-1.74-.08-6.13-2.56-6.6-.48-.09-.96,.04-1.43,.18-2.39,.69-4.78,1.37-7.16,2.06-.8,.23-1.64,.48-2.19,1.1-.39,.44-.6,1.01-.79,1.56-1.65,4.94-2.53,10.14-2.58,15.35-.07-1.57-.34-3.13-.82-4.63"/>
          </g>
          <g>
            <path class="cls-30" d="M343.28,599.22c.22,.69,1.02,1.03,1.75,1.27,4.99,1.6,10.55,1.61,15.54,.03,1.61-.51,3.41-1.49,3.48-3.09,.08-1.62-1.7-2.76-3.33-3.29-3.38-1.09-7.08-.96-10.5-.07-1.85,.48-7.68,2.86-6.93,5.15Z"/>
            <path class="cls-30" d="M337.88,587.71c.06,.56,.47,1.04,.98,1.31,.5,.27,1.08,.36,1.65,.4,1.72,.12,3.48-.15,5.06-.85,.61-.27,1.26-.67,1.42-1.32,.13-.53-.11-1.1-.5-1.49s-.92-.6-1.45-.76c-1.43-.43-3.03-.47-4.45,.02-1.05,.36-2.85,1.37-2.7,2.68Z"/>
            <path class="cls-30" d="M348.23,578.8c-.17,2.15,2.41,3.4,4.55,3.66,7.12,.87,15.36-1.88,20.89,2.68,.83,2.45-5.1,2.53-6.61,4.89-7.51,8.45,39.8,2.34,58.75-3.4,.54-.16,1.11-.35,1.48-.78,1.07-1.25-.41-3.09-1.89-3.81-4.54-2.23-10.07-1.76-14.53-4.13-2.18-1.16-3.97-2.92-6-4.32-16.07-11.12-55.95-1.46-56.65,5.21Z"/>
            <path class="cls-30" d="M0,539.48s48.97-2.22,79.56,13.79c30.59,16.02-27.93,34.1-10.64,51.66,17.29,17.56,50.55-29.33,159.62-22.51,109.07,6.82,96.45,31.63,161.29,41.84,64.84,10.21,78.14-35.04,175.24-50.99,97.1-15.95,196.09-92.81,284.93-92.81v178.21H0v-119.19Z"/>
            <path class="cls-35" d="M499.89,658.67s25.27-51.43,107.74-75.72c82.47-24.29,131.66,8.67,170.91-38.41s71.45-43.9,71.45-43.9v158.04H499.89Z"/>
            <path class="cls-35" d="M870.8,488.96l-4.91,11.84c-5.23-1.2-10.55-1.84-15.97-1.74-11.91,.22-23.55,4.14-33.93,9.99-13.95,7.85-26.57,19.41-42.4,21.85-3.32,.51-6.84,.57-9.89-.85-5.68-2.64-7.97-10.72-4.5-15.95-27.87,1.52-50.17,23.27-76.54,32.4-8.7,3.02-19.35,4.29-26.28-1.79,7.74-7.04,18.52-9.33,28.16-13.41,15.79-6.68,28.81-18.37,42.84-28.22,20.07-14.06,43.2-24.39,67.18-29.43,22.99-.58,48.02,3.6,76.24,15.31Z"/>
            <path class="cls-30" d="M581.81,603.45c-1.72,1.52-3.41,3.18-4.38,5.26-.96,2.09-1.08,4.71,.26,6.57,.85,1.18,2.18,1.95,3.58,2.34,5.82,1.64,11.43-2.62,16.53-5.86,7.46-4.75,16.03-7.75,24.82-8.7,8.29-.89,16.72,.01,24.98-1.15,.93-.13,1.91-.31,2.66-.88,6.46-4.95-8.31-12.39-11.16-13.54-5.15-2.08-9.9-3.37-15.45-2.6-15.26,2.12-30.25,8.32-41.83,18.55Z"/>
            <path class="cls-30" d="M655.61,582.03c-.81,.42-1.69,1.03-1.74,1.94-.04,.67,.41,1.27,.85,1.78,4.12,4.81,9.8,8.26,15.96,9.7,3.03,.71,6.33,.91,9.14-.43,2.81-1.34,4.86-4.6,4-7.59-.4-1.37-1.33-2.52-2.37-3.5-6.88-6.46-17.97-6.06-25.84-1.91Z"/>
            <path class="cls-30" d="M794.52,544.01c-7.06,10.62-13.23,22.08-22.57,30.77-9.38,8.73-21.53,14.15-34.09,16.73-7.13,1.47-14.55,2.1-21.13,5.21-4.97,2.35-9.29,6.07-12.33,10.65-.99,1.48-1.86,3.15-1.85,4.93,.01,1.58,.72,3.05,1.43,4.46,1.59,3.18,3.31,6.42,6.08,8.65,2.14,1.73,4.77,2.73,7.41,3.48,10.44,2.94,21.74,2.13,32.05-1.25,10.31-3.38,19.69-9.23,28.01-16.2,6.28-5.26,12.06-11.22,16.38-18.18,6.34-10.22,9.28-22.1,12.85-33.59,2.28-7.34,4.88-14.67,8.8-21.32,1.85-3.14,10.78-10.97,8.77-14.08-2.49-3.85-10.72-1.08-13.4,.77-6.72,4.63-11.96,12.3-16.4,18.97Z"/>
            <g>
              <path class="cls-19" d="M401.03,558.05c.03,1.79-.08,3.65-.28,5.45-.67,6.18-2.26,11.73-2.26,11.73,0,0-1.75,.32-4.58,.73-1.34,.19-2.92,.41-4.67,.61-3,.35-6.49,.68-10.11,.86-.89,.04-1.79,.08-2.69,.1-1.6,.04-3.21,.05-4.8,0-1.43-.03-2.84-.11-4.19-.23-.81-.08-1.6-.16-2.38-.27,0,0-9.87-13.19-3.23-23.61,6.64-10.41,30.94-10.82,36.65-4.5,1.82,2.02,2.48,5.41,2.53,9.11Z"/>
              <g>
                <path class="cls-16" d="M365.67,569.35c.24,2.72,.85,5.4,1.79,7.96,1.36,.12,2.76,.2,4.19,.24-.81-6-2.17-11.96-2.02-18.01,.04-1.54,.19-3.12,.63-4.58-.82-.04-1.63-.11-2.44-.23-1.85,4.61-2.6,9.67-2.15,14.62Z"/>
                <path class="cls-16" d="M378.09,560.03c1.02,5.73,.84,11.58,1.06,17.41,3.61-.18,7.1-.51,10.1-.86-.5-3.01-1.14-5.99-2.04-8.91-1.47-4.73-3.65-9.29-6.81-13.09-1.23,.14-2.46,.24-3.69,.32,.64,1.66,1.07,3.39,1.38,5.14Z"/>
                <path class="cls-16" d="M399.42,560.46c-1.7-3.3-4.19-6.25-7.22-8.34-.74,.3-1.52,.52-2.29,.72-.61,.16-1.23,.3-1.85,.44,.35,.32,.68,.65,.98,1.01,2.64,3.09,3.72,7.2,4.32,11.22,.51,3.46,.72,6.97,.54,10.45,2.83-.41,4.58-.73,4.58-.73,0,0,1.59-5.55,2.26-11.73-.38-1.04-.82-2.05-1.33-3.04Z"/>
              </g>
              <path class="cls-17" d="M366.58,550.55c-.54,.37-1.08,.79-1.4,1.35-.33,.57-.39,1.33,0,1.86,.33,.44,.91,.62,1.44,.74,1.71,.39,3.48,.48,5.24,.5,6.08,.07,12.16-.66,18.05-2.17,1.64-.42,3.34-.94,4.55-2.13,.6-.59,1.07-1.52,.65-2.25-.25-.43-.73-.66-1.19-.84-.54-.21-1.09-.4-1.65-.57-8.29-2.56-18.48-1.51-25.69,3.51Z"/>
              <path class="cls-17" d="M401.03,558.05c.03,1.79-.08,3.65-.28,5.45-.67,6.18-2.26,11.73-2.26,11.73,0,0-1.75,.32-4.58,.73-1.34,.19-2.92,.41-4.67,.61-3,.35-6.49,.68-10.11,.86-.89,.04-1.79,.08-2.69,.1,2.33-1.78,4.26-4.09,5.52-6.73,.84-1.74,1.39-3.6,2.35-5.28,2.16-3.79,6.22-6.26,10.5-7.15,2.04-.42,4.13-.5,6.21-.34Z"/>
            </g>
            <g>
              <path class="cls-19" d="M391.33,573.85c.64,5.77,2.16,10.94,2.16,10.94,0,0,1.67,.3,4.37,.68,1.28,.18,2.79,.39,4.46,.58,2.87,.33,6.2,.64,9.65,.8,2.37,.11,4.79,.16,7.16,.1,1.36-.03,2.71-.11,4-.22,.78-.07,1.53-.15,2.26-.25,0,0,9.42-12.31,3.09-22.03-6.33-9.72-29.53-10.09-34.98-4.19-2.58,2.79-2.72,8.43-2.16,13.59Z"/>
              <g>
                <path class="cls-16" d="M421.05,570.15c.14,5.64-1.16,11.2-1.93,16.8,1.36-.03,2.71-.11,4-.22,.89-2.39,1.47-4.89,1.71-7.43,.43-4.62-.3-9.34-2.07-13.64-.76,.11-1.54,.18-2.31,.21,.43,1.36,.57,2.84,.61,4.27Z"/>
                <path class="cls-16" d="M404.27,577.74c-.86,2.72-1.47,5.5-1.95,8.31,2.87,.33,6.2,.64,9.65,.8,.2-5.43,.04-10.9,1.01-16.24,.3-1.63,.71-3.25,1.32-4.8-1.18-.07-2.35-.17-3.52-.3-3.02,3.55-5.1,7.8-6.5,12.22Z"/>
                <path class="cls-16" d="M399.5,563.23c-2.9,1.96-5.27,4.71-6.89,7.79-.49,.92-.91,1.86-1.27,2.83,.64,5.77,2.16,10.94,2.16,10.94,0,0,1.67,.3,4.37,.68-.17-3.25,.03-6.52,.52-9.75,.57-3.74,1.6-7.58,4.12-10.47,.29-.33,.61-.65,.94-.94-.59-.13-1.18-.26-1.76-.41-.74-.18-1.48-.39-2.19-.67Z"/>
                <path class="cls-17" d="M423.96,561.76c.51,.35,1.03,.73,1.34,1.26,.31,.53,.37,1.24,0,1.73-.32,.41-.86,.58-1.38,.69-1.64,.37-3.32,.45-5,.47-5.8,.07-11.61-.61-17.23-2.02-1.57-.39-3.19-.88-4.34-1.99-.57-.55-1.02-1.42-.62-2.1,.24-.4,.7-.62,1.14-.79,.52-.2,1.04-.37,1.57-.53,7.91-2.39,17.64-1.41,24.52,3.27Z"/>
              </g>
            </g>
          </g>
          <g>
            <circle class="cls-8" cx="284.84" cy="505.79" r="10.49"/>
            <circle class="cls-8" cx="264.95" cy="470.22" r="20.28"/>
            <path class="cls-9" d="M256.92,456.36s-10.62,7.7-4.43,20.43"/>
            <circle class="cls-9" cx="254.28" cy="479.91" r=".54"/>
            <path class="cls-10" d="M280.91,498.13s-6.22,4.51-2.59,11.95"/>
            <circle class="cls-10" cx="279.37" cy="511.9" r=".32"/>
          </g>
          <g>
            <circle class="cls-8" cx="701.84" cy="431.88" r="10.49"/>
            <circle class="cls-8" cx="721.73" cy="396.31" r="20.28"/>
            <path class="cls-9" d="M729.76,382.45s10.62,7.7,4.43,20.43"/>
            <circle class="cls-9" cx="732.4" cy="405.99" r=".54"/>
            <path class="cls-10" d="M705.77,424.21s6.22,4.51,2.59,11.95"/>
            <circle class="cls-10" cx="707.31" cy="437.99" r=".32"/>
          </g>
        </g>
      </g>
    </g>
  </g>
</svg>