<svg width="30" height="31" viewBox="0 0 30 31" fill="none" xmlns="http://www.w3.org/2000/svg">
<g id="bx:time">
<path id="Vector" d="M14.8774 3.11523C8.04113 3.11523 2.47938 8.67699 2.47938 15.5133C2.47938 22.3495 8.04113 27.9113 14.8774 27.9113C21.7137 27.9113 27.2754 22.3495 27.2754 15.5133C27.2754 8.67699 21.7137 3.11523 14.8774 3.11523ZM14.8774 25.4317C9.40863 25.4317 4.95898 20.982 4.95898 15.5133C4.95898 10.0445 9.40863 5.59484 14.8774 5.59484C20.3462 5.59484 24.7958 10.0445 24.7958 15.5133C24.7958 20.982 20.3462 25.4317 14.8774 25.4317Z" fill="#FF681A"/>
<path id="Vector_2" d="M16.1172 9.3125H13.6376V16.7513H21.0764V14.2717H16.1172V9.3125Z" fill="#FF681A"/>
</g>
</svg>
