<svg width="56" height="52" viewBox="0 0 56 52" fill="none" xmlns="http://www.w3.org/2000/svg">
<path d="M15.9179 39C15.6751 38.9969 15.443 38.8976 15.2715 38.7233C15.1 38.549 15.0027 38.3136 15.0003 38.0674V16.7029C14.9972 16.5786 15.0186 16.455 15.0633 16.3393C15.108 16.2236 15.175 16.1181 15.2605 16.029C15.346 15.9399 15.4482 15.869 15.5611 15.8205C15.674 15.772 15.7953 15.7469 15.9179 15.7466H20.6205V14.9299C20.6205 14.6833 20.7172 14.4468 20.8893 14.2724C21.0614 14.098 21.2948 14 21.5382 14C21.7816 14 22.015 14.098 22.1871 14.2724C22.3592 14.4468 22.4559 14.6833 22.4559 14.9299V15.7466H33.6963V14.9299C33.6963 14.6833 33.7929 14.4468 33.965 14.2724C34.1371 14.098 34.3706 14 34.614 14C34.8573 14 35.0907 14.098 35.2628 14.2724C35.4349 14.4468 35.5316 14.6833 35.5316 14.9299V15.7466H40.0808C40.2035 15.7469 40.3249 15.772 40.4378 15.8204C40.5508 15.8689 40.6531 15.9398 40.7387 16.0289C40.8242 16.118 40.8914 16.2234 40.9363 16.3391C40.9811 16.4549 41.0027 16.5786 40.9997 16.7029V38.0411C41.0027 38.1653 40.9811 38.289 40.9363 38.4048C40.8914 38.5205 40.8242 38.6259 40.7387 38.715C40.6531 38.8041 40.5508 38.875 40.4378 38.9235C40.3249 38.9719 40.2035 38.997 40.0808 38.9973L15.9179 39ZM16.8369 37.1111H39.1606V22.0426H16.8369V37.1111ZM16.8369 20.1301H39.1761V17.6617H35.5368V18.1741C35.5368 18.4208 35.4401 18.6573 35.268 18.8317C35.0959 19.0061 34.8625 19.1041 34.6191 19.1041C34.3758 19.1041 34.1424 19.0061 33.9703 18.8317C33.7982 18.6573 33.7015 18.4208 33.7015 18.1741V17.6617H22.461V18.1741C22.461 18.4208 22.3643 18.6573 22.1922 18.8317C22.0201 19.0061 21.7867 19.1041 21.5434 19.1041C21.3 19.1041 21.0666 19.0061 20.8945 18.8317C20.7224 18.6573 20.6257 18.4208 20.6257 18.1741V17.6617H16.8421L16.8369 20.1301ZM21.4043 32.9594C21.1599 32.9502 20.9285 32.8454 20.7589 32.667C20.5892 32.4885 20.4944 32.2503 20.4944 32.0025C20.4944 31.7547 20.5892 31.5165 20.7589 31.338C20.9285 31.1596 21.1599 31.0548 21.4043 31.0456H28.0085C28.2528 31.0548 28.4842 31.1596 28.6539 31.338C28.8236 31.5165 28.9184 31.7547 28.9184 32.0025C28.9184 32.2503 28.8236 32.4885 28.6539 32.667C28.4842 32.8454 28.2528 32.9502 28.0085 32.9594H21.4043ZM21.4043 28.3414C21.1599 28.3322 20.9285 28.2274 20.7589 28.049C20.5892 27.8705 20.4944 27.6323 20.4944 27.3845C20.4944 27.1367 20.5892 26.8985 20.7589 26.72C20.9285 26.5416 21.1599 26.4368 21.4043 26.4276H34.6152C34.8596 26.4368 35.0909 26.5416 35.2606 26.72C35.4303 26.8985 35.5251 27.1367 35.5251 27.3845C35.5251 27.6323 35.4303 27.8705 35.2606 28.049C35.0909 28.2274 34.8596 28.3322 34.6152 28.3414H21.4043Z" fill="#0DB1FF"/>
<path d="M55.5 26C55.5 40.049 43.2234 51.5 28 51.5C12.7766 51.5 0.5 40.049 0.5 26C0.5 11.951 12.7766 0.5 28 0.5C43.2234 0.5 55.5 11.951 55.5 26Z" stroke="#0DB1FF"/>
</svg>
