<svg width="29" height="27" viewBox="0 0 29 27" fill="none" xmlns="http://www.w3.org/2000/svg">
<g id="carbon:ticket">
<path id="Vector" d="M26.281 11.8125C26.5213 11.8125 26.7518 11.7236 26.9218 11.5654C27.0917 11.4071 27.1872 11.1925 27.1872 10.9688V6.75C27.1872 6.30245 26.9963 5.87322 26.6563 5.55676C26.3164 5.24029 25.8554 5.0625 25.3747 5.0625H3.62471C3.14401 5.0625 2.68299 5.24029 2.34308 5.55676C2.00317 5.87322 1.81221 6.30245 1.81221 6.75V10.9688C1.81221 11.1925 1.90769 11.4071 2.07764 11.5654C2.2476 11.7236 2.47811 11.8125 2.71846 11.8125C3.19916 11.8125 3.66018 11.9903 4.00009 12.3068C4.34 12.6232 4.53096 13.0524 4.53096 13.5C4.53096 13.9476 4.34 14.3768 4.00009 14.6932C3.66018 15.0097 3.19916 15.1875 2.71846 15.1875C2.47811 15.1875 2.2476 15.2764 2.07764 15.4346C1.90769 15.5929 1.81221 15.8075 1.81221 16.0312V20.25C1.81221 20.6976 2.00317 21.1268 2.34308 21.4432C2.68299 21.7597 3.14401 21.9375 3.62471 21.9375H25.3747C25.8554 21.9375 26.3164 21.7597 26.6563 21.4432C26.9963 21.1268 27.1872 20.6976 27.1872 20.25V16.0312C27.1872 15.8075 27.0917 15.5929 26.9218 15.4346C26.7518 15.2764 26.5213 15.1875 26.281 15.1875C25.8003 15.1875 25.3392 15.0097 24.9993 14.6932C24.6594 14.3768 24.4685 13.9476 24.4685 13.5C24.4685 13.0524 24.6594 12.6232 24.9993 12.3068C25.3392 11.9903 25.8003 11.8125 26.281 11.8125ZM25.3747 16.7653V20.25H19.031V17.7188H17.2185V20.25H3.62471V16.7653C4.40046 16.5765 5.08709 16.1536 5.57716 15.5628C6.06722 14.972 6.33305 14.2465 6.33305 13.5C6.33305 12.7535 6.06722 12.028 5.57716 11.4372C5.08709 10.8464 4.40046 10.4235 3.62471 10.2347V6.75H17.2185V9.28125H19.031V6.75H25.3747V10.2347C24.599 10.4235 23.9123 10.8464 23.4223 11.4372C22.9322 12.028 22.6664 12.7535 22.6664 13.5C22.6664 14.2465 22.9322 14.972 23.4223 15.5628C23.9123 16.1536 24.599 16.5765 25.3747 16.7653Z" fill="#FF681A"/>
<path id="Vector_2" d="M17.2185 10.9688H19.031V16.0312H17.2185V10.9688Z" fill="#FF681A"/>
</g>
</svg>
