<svg width="27" height="27" viewBox="0 0 27 27" fill="none" xmlns="http://www.w3.org/2000/svg">
<g id="carbon:location">
<path id="Vector" d="M13.1114 15.4865C12.301 15.4865 11.5089 15.2462 10.8351 14.796C10.1613 14.3458 9.63611 13.7059 9.326 12.9572C9.01589 12.2085 8.93475 11.3847 9.09284 10.5899C9.25093 9.79513 9.64116 9.06507 10.2142 8.49206C10.7872 7.91904 11.5173 7.52882 12.312 7.37072C13.1068 7.21263 13.9307 7.29377 14.6793 7.60388C15.428 7.91399 16.0679 8.43915 16.5181 9.11294C16.9684 9.78674 17.2087 10.5789 17.2087 11.3893C17.2074 12.4755 16.7753 13.5169 16.0072 14.285C15.239 15.0531 14.1976 15.4852 13.1114 15.4865ZM13.1114 8.9309C12.6252 8.9309 12.1499 9.07508 11.7456 9.34521C11.3413 9.61534 11.0262 9.99928 10.8402 10.4485C10.6541 10.8977 10.6054 11.392 10.7003 11.8689C10.7951 12.3457 11.0292 12.7838 11.3731 13.1276C11.7169 13.4714 12.1549 13.7055 12.6318 13.8004C13.1087 13.8952 13.603 13.8466 14.0522 13.6605C14.5014 13.4744 14.8853 13.1593 15.1554 12.7551C15.4256 12.3508 15.5697 11.8755 15.5697 11.3893C15.5691 10.7375 15.3099 10.1125 14.849 9.65166C14.3881 9.19077 13.7632 8.93155 13.1114 8.9309Z" fill="#FF681A"/>
<path id="Vector_2" d="M13.1114 25.3197L6.19847 17.167C6.10241 17.0445 6.00735 16.9213 5.9133 16.7974C4.73245 15.2419 4.09453 13.3419 4.09739 11.389C4.09739 8.99833 5.04707 6.70559 6.73753 5.01514C8.42798 3.32469 10.7207 2.375 13.1114 2.375C15.502 2.375 17.7948 3.32469 19.4852 5.01514C21.1757 6.70559 22.1254 8.99833 22.1254 11.389C22.1282 13.341 21.4906 15.2401 20.3103 16.7949L20.3095 16.7974C20.3095 16.7974 20.0636 17.1203 20.0268 17.1637L13.1114 25.3197ZM7.22115 15.8099C7.22279 15.8099 7.4129 16.0623 7.45633 16.1164L13.1114 22.786L18.7738 16.1074C18.8099 16.0623 19.0016 15.8083 19.0024 15.8075C19.9671 14.5366 20.4884 12.9845 20.4865 11.389C20.4865 9.433 19.7095 7.55712 18.3264 6.17402C16.9433 4.79092 15.0674 4.01391 13.1114 4.01391C11.1554 4.01391 9.27951 4.79092 7.89641 6.17402C6.51331 7.55712 5.7363 9.433 5.7363 11.389C5.73458 12.9855 6.25647 14.5385 7.22197 15.8099H7.22115Z" fill="#FF681A"/>
</g>
</svg>
