<svg width="56" height="52" viewBox="0 0 56 52" fill="none" xmlns="http://www.w3.org/2000/svg">
<path d="M55.5 26C55.5 40.049 43.2234 51.5 28 51.5C12.7766 51.5 0.5 40.049 0.5 26C0.5 11.951 12.7766 0.5 28 0.5C43.2234 0.5 55.5 11.951 55.5 26Z" stroke="#0DB1FF"/>
<path d="M27.9999 39.5404C21.0816 39.5404 15.4583 33.917 15.4583 26.9987C15.4583 20.0804 21.0816 14.457 27.9999 14.457C34.9183 14.457 40.5416 20.0804 40.5416 26.9987C40.5416 33.917 34.9183 39.5404 27.9999 39.5404ZM27.9999 16.207C22.0499 16.207 17.2083 21.0487 17.2083 26.9987C17.2083 32.9487 22.0499 37.7904 27.9999 37.7904C33.9499 37.7904 38.7916 32.9487 38.7916 26.9987C38.7916 21.0487 33.9499 16.207 27.9999 16.207Z" fill="#0DB1FF"/>
<path d="M32.3283 31.5851C32.1766 31.5851 32.025 31.5501 31.885 31.4567L28.2683 29.2984C27.37 28.7617 26.705 27.5834 26.705 26.5451V21.7617C26.705 21.2834 27.1016 20.8867 27.58 20.8867C28.0583 20.8867 28.455 21.2834 28.455 21.7617V26.5451C28.455 26.9651 28.805 27.5834 29.1666 27.7934L32.7833 29.9517C33.2033 30.1967 33.3316 30.7334 33.0866 31.1534C32.9116 31.4334 32.62 31.5851 32.3283 31.5851Z" fill="#0DB1FF"/>
</svg>
