<svg width="81" height="43" viewBox="0 0 81 43" fill="none" xmlns="http://www.w3.org/2000/svg">
<g id="Frame" clip-path="url(#clip0_11461_24030)">
<path id="banknotes" d="M80.0691 17.2391C80.0685 17.1103 80.0179 16.9839 79.9223 16.8725C79.8267 16.7612 79.6896 16.6688 79.5247 16.6047L74.0242 14.4656L79.5273 12.3143C79.6924 12.2502 79.8296 12.1577 79.925 12.0462C80.0204 11.9346 80.0706 11.808 80.0706 11.6791C80.0706 11.5501 80.0204 11.4235 79.925 11.312C79.8296 11.2004 79.6924 11.1079 79.5273 11.0438L51.398 0.102005C51.2337 0.0377371 51.0473 0.00390625 50.8575 0.00390625C50.6677 0.00390625 50.4813 0.0377371 50.317 0.102005L0.541885 19.5669C0.376781 19.631 0.239592 19.7235 0.144185 19.8351C0.0487779 19.9466 -0.00146484 20.0733 -0.00146484 20.2022C-0.00146484 20.3311 0.0487779 20.4577 0.144185 20.5693C0.239592 20.6808 0.376781 20.7733 0.541885 20.8374L6.04235 22.9765L0.541885 25.1278C0.376781 25.1919 0.239592 25.2844 0.144185 25.396C0.0487779 25.5075 -0.00146484 25.6342 -0.00146484 25.7631C-0.00146484 25.892 0.0487779 26.0186 0.144185 26.1302C0.239592 26.2417 0.376781 26.3342 0.541885 26.3983L6.04235 28.5374L0.541885 30.6852C0.376781 30.7493 0.239592 30.8418 0.144185 30.9534C0.0487779 31.0649 -0.00146484 31.1916 -0.00146484 31.3205C-0.00146484 31.4494 0.0487779 31.576 0.144185 31.6876C0.239592 31.7991 0.376781 31.8916 0.541885 31.9557L28.6634 42.8993C28.8277 42.9636 29.0142 42.9974 29.2039 42.9974C29.3937 42.9974 29.5801 42.9636 29.7444 42.8993L79.5273 23.4361C79.6924 23.372 79.8296 23.2795 79.925 23.168C80.0204 23.0564 80.0706 22.9298 80.0706 22.8009C80.0706 22.672 80.0204 22.5453 79.925 22.4338C79.8296 22.3222 79.6924 22.2297 79.5273 22.1656L74.0242 20.0248L79.5273 17.8735C79.6919 17.8093 79.8287 17.7169 79.9238 17.6055C80.0189 17.4941 80.069 17.3678 80.0691 17.2391ZM50.8614 1.58049L76.8183 11.6782L58.0827 19.0042C57.4867 18.7752 56.3928 18.3523 54.9712 17.8001L65.6213 13.6373C65.7478 13.5877 65.8582 13.5213 65.9458 13.4421C66.0334 13.3628 66.0965 13.2724 66.1312 13.1763C66.1659 13.0801 66.1715 12.9802 66.1478 12.8825C66.124 12.7848 66.0713 12.6914 65.9928 12.6079C65.8069 12.4316 65.6878 12.227 65.646 12.0122C65.6041 11.7973 65.6409 11.5788 65.7529 11.3759C65.8587 11.2104 65.8709 11.0244 65.7871 10.8532C65.7034 10.6821 65.5295 10.5378 65.2988 10.4479L53.7845 5.96525C53.6463 5.9116 53.4923 5.87924 53.3336 5.87048C53.1748 5.86172 53.0152 5.87677 52.866 5.91456C51.1807 6.28301 49.3563 6.22969 47.7241 5.76427C47.5705 5.72103 47.4043 5.70233 47.2383 5.7096C47.0723 5.71687 46.9111 5.74993 46.767 5.80621L35.4951 10.2154L34.3135 9.75582L32.1309 8.90473L50.8614 1.58049ZM63.676 12.7058L52.7989 16.956C48.3666 15.2328 42.2624 12.8526 37.6623 11.0595L47.4016 7.24974C49.2427 7.69083 51.238 7.74324 53.124 7.40004L63.4954 11.437C63.4059 11.8631 63.4678 12.2992 63.676 12.7058ZM21.9658 12.8805L25.1031 14.1039L14.4685 18.2597C14.3417 18.3091 14.2311 18.3754 14.1432 18.4546C14.0554 18.5338 13.9922 18.6243 13.9575 18.7205C13.9228 18.8167 13.9172 18.9167 13.9412 19.0145C13.9652 19.1122 14.0182 19.2056 14.097 19.289C14.2805 19.4645 14.3983 19.6675 14.4401 19.8806C14.4819 20.0938 14.4465 20.3106 14.3369 20.5124C14.2311 20.6778 14.2189 20.8639 14.3027 21.035C14.3864 21.2062 14.5602 21.3505 14.791 21.4404L26.3157 25.923C26.4538 25.9767 26.6077 26.0092 26.7665 26.0179C26.9253 26.0267 27.085 26.0116 27.2341 25.9737C28.9192 25.6053 30.7433 25.658 32.376 26.1222C32.5295 26.1656 32.6958 26.1844 32.8618 26.1771C33.0278 26.1698 33.1891 26.1367 33.3331 26.0803L35.1056 25.3812L44.5972 21.6693L47.9383 22.9678L29.2207 30.2903C20.5589 26.9302 11.9023 23.5666 3.25084 20.1995L21.9658 12.8805ZM16.4164 19.1912L27.2728 14.9427L41.0085 20.2852L42.4172 20.8322L34.0117 24.1177L32.683 24.642C30.8416 24.2018 28.8464 24.15 26.9606 24.4934L16.597 20.4582C16.6866 20.0316 16.6247 19.5984 16.4164 19.1912ZM8.21468 23.8223L28.6737 31.781C28.8381 31.8452 29.0245 31.8791 29.2142 31.8791C29.404 31.8791 29.5904 31.8452 29.7547 31.781L49.0193 24.2418V28.1092L29.1975 35.8599L3.25084 25.7622L8.21468 23.8223ZM29.2104 41.4243L3.25084 31.3231L8.21468 29.3833L28.6712 37.3419C28.8355 37.4061 29.0219 37.44 29.2117 37.44C29.4014 37.44 29.5878 37.4061 29.7522 37.3419L49.0373 29.7992L49.0502 33.6632L29.2104 41.4243ZM51.2122 32.8208L51.1761 22.9748C51.1758 22.8459 51.1253 22.7194 51.0297 22.608C50.9341 22.4967 50.7969 22.4043 50.6318 22.3404L24.1304 12.0295L29.9663 9.74708C29.9663 9.74708 55.2112 19.5931 57.0171 20.259L57.0481 30.5367L51.2122 32.8208ZM76.8209 22.8052L59.2075 29.6943V25.8286L71.8725 20.8759L76.8209 22.8052ZM59.1895 24.1387V20.2712L71.8571 15.3062L76.8183 17.2286L59.1895 24.1387ZM26.0577 21.6186C25.9864 21.5353 25.9401 21.4433 25.9213 21.3479C25.9026 21.2525 25.9118 21.1555 25.9485 21.0625C25.9851 20.9695 26.0485 20.8823 26.135 20.8059C26.2215 20.7295 26.3293 20.6654 26.4524 20.6172L31.1918 18.763C31.4402 18.6659 31.7353 18.6396 32.0123 18.6899C32.2893 18.7402 32.5255 18.863 32.6688 19.0313C32.8122 19.1995 32.851 19.3995 32.7767 19.5871C32.7024 19.7747 32.5212 19.9347 32.2728 20.0318L27.5334 21.886C27.4104 21.9343 27.2746 21.9657 27.1338 21.9783C26.9929 21.991 26.8497 21.9848 26.7124 21.96C26.5751 21.9351 26.4463 21.8922 26.3336 21.8336C26.2208 21.775 26.1261 21.702 26.0551 21.6186H26.0577ZM54.6281 10.4444C54.6994 10.5277 54.7457 10.6197 54.7644 10.7151C54.7832 10.8105 54.774 10.9075 54.7373 11.0005C54.7006 11.0935 54.6372 11.1807 54.5508 11.2571C54.4643 11.3335 54.3564 11.3976 54.2334 11.4458L50.0642 13.0763C49.9412 13.1244 49.8054 13.1556 49.6646 13.1681C49.5238 13.1806 49.3808 13.1743 49.2436 13.1494C49.1065 13.1245 48.9779 13.0815 48.8653 13.0229C48.7526 12.9644 48.6581 12.8913 48.5871 12.808C48.5162 12.7247 48.4701 12.6328 48.4516 12.5374C48.4331 12.442 48.4425 12.3451 48.4792 12.2522C48.516 12.1593 48.5794 12.0722 48.6659 11.9959C48.7524 11.9196 48.8602 11.8556 48.9832 11.8075L53.1524 10.177C53.2753 10.1287 53.4111 10.0973 53.552 10.0846C53.6929 10.0719 53.8361 10.0782 53.9734 10.103C54.1107 10.1279 54.2394 10.1708 54.3522 10.2294C54.465 10.2879 54.557 10.361 54.6281 10.4444Z" fill="#00AE6E"/>
</g>
<defs>
<clipPath id="clip0_11461_24030">
<rect width="80.069" height="43" fill="white"/>
</clipPath>
</defs>
</svg>
