<?xml version="1.0" encoding="UTF-8"?>
<svg id="Layer_2" data-name="Layer 2" xmlns="http://www.w3.org/2000/svg" viewBox="0 0 149.01 120.82">
  <defs>
    <style>
      .cls-1 {
        fill: #0157fb;
      }
    </style>
  </defs>
  <g id="Layer_1-2" data-name="Layer 1">
    <g>
      <path class="cls-1" d="M58.97,50.41c-.79,.94-1.56,1.85-2.12,2.52-3.89-1.6-7.55-3.3-11.35-4.59-1.67-.57-2.4-1.2-2.09-2.92,.06-.33,.05-.69,0-1.03-.25-1.86,.11-3.02,2.29-3.67,2.68-.79,4.14-3.98,3.65-6.66-.55-3.01-2.86-5.18-5.89-5.28-3.37-.11-6.74-.04-10.11-.05-.62,0-1.23,0-1.99,0,0-2.26-.15-4.37,.04-6.45,.2-2.16,2.03-3.63,4.24-3.74,.34-.02,.69-.01,1.03-.01,35.66,0,71.32,0,106.99-.01,1.6,0,3.17,.12,4.17,1.5,.57,.79,1.1,1.84,1.11,2.77,.09,8,.05,16,.05,24.28h-2.03c-9.43,0-18.86,0-28.29,0-5.42,0-8.06,2.66-8.06,8.14,0,3.94,0,7.89,0,11.83,0,5.35,2.68,8.04,7.98,8.05,9.37,0,18.75,0,28.12,0h2.18c.05,.59,.12,1.08,.12,1.57,0,6.34,.02,12.69,0,19.03-.01,3.58-1.66,5.2-5.28,5.2-23.72,0-47.43,0-71.15,0h-1.4c5.33-14.68,3.25-28.1-6.41-40.4,.83-.98,1.67-1.97,2.34-2.77,1.35,.39,2.47,.9,3.61,.99,2.08,.16,3.62-.87,4.54-2.74,.91-1.83,.72-4.02-.8-5.39-3-2.72-6.09-5.36-9.28-7.87-1.85-1.45-4.47-1.07-6.13,.54-1.65,1.6-1.96,4.09-.76,6.13,.2,.33,.43,.64,.69,1.03Z"/>
      <path class="cls-1" d="M34.89,120.82C15.52,120.78-.04,105.15,0,85.78c.04-19.24,15.69-34.89,34.91-34.91,19.25-.01,35.04,15.76,35.04,35.01,0,19.28-15.76,34.99-35.05,34.94Zm.07-63.18c-15.57,0-28.27,12.67-28.28,28.21,0,15.52,12.74,28.28,28.25,28.29,15.54,0,28.24-12.7,28.26-28.25,.01-15.57-12.64-28.24-28.22-28.25Z"/>
      <path class="cls-1" d="M148.92,51.27v19.68h-1.73c-9.54,0-19.08,0-28.62,0-2.99,0-3.85-.88-3.86-3.91,0-4.17-.02-8.34,0-12.51,.02-2.28,1.01-3.35,3.19-3.35,10.05-.02,20.11,0,30.16,0,.22,0,.44,.05,.85,.09Zm-21.45,11.84c1.02,0,2.05,.06,3.07-.01,1.26-.09,2.03-.8,1.99-2.09-.03-1.29-.82-1.97-2.09-1.99-1.99-.03-3.98-.03-5.97,0-1.27,.02-2.06,.72-2.08,2-.02,1.29,.75,2,2.01,2.08,1.02,.07,2.05,.01,3.07,.01Z"/>
      <path class="cls-1" d="M138.28,14.34H58.76c-.01-.06-.03-.12-.04-.18,3.12-.58,6.23-1.18,9.35-1.74,21.28-3.86,42.55-7.72,63.83-11.57,1.46-.26,2.92-.53,4.38-.79,1.27-.23,2,.23,2,1.6,0,4.17,0,8.33,0,12.69Z"/>
      <path class="cls-1" d="M35.09,32.84c2.51,0,5.03-.02,7.54,0,1.7,.02,2.69,.88,2.68,2.23,0,1.32-1.04,2.23-2.7,2.24-5.08,.03-10.17,.02-15.25,0-1.73,0-2.7-.82-2.75-2.18-.05-1.42,.95-2.27,2.77-2.29,2.57-.03,5.14,0,7.71,0Z"/>
      <path class="cls-1" d="M30.69,41.5h8.46v5.37h-8.46v-5.37Z"/>
      <path class="cls-1" d="M71.87,54.21c-.69,.08-1.36,.37-1.62,.16-2.78-2.25-5.51-4.57-8.2-6.92-.22-.19-.1-.79-.14-1.19,.36-.03,.85-.22,1.06-.06,2.81,2.31,5.57,4.67,8.34,7.02,.16,.14,.22,.38,.56,.99Z"/>
      <path class="cls-1" d="M59.88,55.75c.75-.9,1.43-1.71,2.27-2.71,.66,.54,1.29,1.06,2.02,1.65-.76,.92-1.46,1.78-2.32,2.82-.67-.6-1.28-1.14-1.97-1.76Z"/>
      <path class="cls-1" d="M16.51,101.42c-3.41-4.28-5.22-8.66-5.58-13.94,.97,0,1.85,0,2.73,0,2.03,0,2.94-.62,2.97-2.01,.03-1.45-.92-2.1-3.05-2.11-.79,0-1.58,0-2.57,0,.51-5.06,2.43-9.31,5.98-13.56,.66,.87,1.2,1.66,1.83,2.38,.92,1.04,2.02,1.32,3.15,.35,1.01-.86,.87-2.04-.3-3.29-.31-.33-.65-.64-.97-.97-.28-.28-.54-.58-.8-.86,1.97-2.61,8.18-5.24,13.02-5.41,0,1,0,1.99,0,2.99,0,1.3,.71,2.1,1.95,2.15,1.27,.05,2.01-.78,2.11-2.02,.09-1.01,.02-2.03,.02-3.22,5.04,.45,9.29,2.2,13.42,5.52-.89,.77-1.71,1.38-2.42,2.1-.95,.96-1.03,2.06-.05,3.02,.94,.91,2,.75,2.9-.12,.73-.71,1.37-1.52,2.17-2.42,3.44,3.98,5.3,8.27,5.89,13.38-1,0-1.89,0-2.78,0-1.95,.01-2.92,.73-2.89,2.11,.03,1.33,.95,1.99,2.82,2,.96,0,1.92,0,2.94,0-.4,5.16-2.14,9.58-5.56,13.87-.89-1.01-1.63-1.93-2.45-2.78-.98-1-2.12-1.24-3.14-.13-.93,1.01-.7,2.12,.26,3.03,.86,.82,1.78,1.58,2.79,2.47-4.18,3.51-8.56,5.45-13.87,5.92,0-1.29,0-2.47,0-3.65,0-1.37-.56-2.36-2.03-2.49-1.26-.12-2.04,.89-2.08,2.55-.03,1.03-.03,2.06-.05,3.08,0,.1-.09,.2-.22,.47-5.07-.37-9.46-2.39-13.68-5.87,.98-.84,1.89-1.54,2.69-2.35,1.2-1.21,1.31-2.41,.3-3.28-1.14-.97-2.22-.68-3.15,.35-.76,.84-1.46,1.73-2.3,2.74Zm20.52-17.63c0-.85,0-1.47,0-2.09,0-2.97,.01-5.93-.01-8.9-.01-1.38-.68-2.39-2.13-2.36-1.34,.03-1.98,.95-1.97,2.31,0,4.28,0,8.56,0,12.84,0,1.54,.77,2.32,2.31,2.32,3.19,0,6.39,0,9.58,0,1.29,0,2.1-.68,2.16-1.94,.06-1.27-.77-1.97-2-2.13-.51-.07-1.02-.03-1.54-.03-2.05,0-4.09,0-6.41,0Z"/>
    </g>
  </g>
</svg>