<svg width="49" height="48" viewBox="0 0 49 48" fill="none" xmlns="http://www.w3.org/2000/svg">
<g id="healthicons:award-ribbon-outline">
<g id="vuesax/outline/empty-wallet-tick">
<g id="empty-wallet-tick">
<path id="Vector" d="M33.2861 40.1256H18.0552C17.5731 40.1256 17.1513 39.8256 16.9856 39.3906C16.8199 38.9406 16.9555 38.4456 17.317 38.1456C17.6786 37.8456 18.01 37.4556 18.2511 37.0356C18.7331 36.2706 18.9742 35.4006 18.9742 34.5156C18.9742 31.8306 16.7747 29.6406 14.078 29.6406C12.9632 29.6406 11.9086 30.0156 11.0198 30.7206C10.6884 30.9906 10.2213 31.0356 9.82963 30.8556C9.43794 30.6756 9.1969 30.2706 9.1969 29.8356V23.2806C9.1969 19.5456 12.2401 16.5156 15.9913 16.5156H33.2861C37.0373 16.5156 40.0805 19.5456 40.0805 23.2806V25.4406C40.0805 26.0556 39.5683 26.5656 38.9506 26.5656H35.9074C35.3802 26.5656 34.8981 26.7606 34.5516 27.1206L34.5365 27.1357C34.1147 27.5407 33.9188 28.0956 33.964 28.6656C34.0544 29.6556 35.0035 30.4506 36.0882 30.4506H38.9506C39.5683 30.4506 40.0805 30.9606 40.0805 31.5756V33.3606C40.0805 37.0956 37.0373 40.1256 33.2861 40.1256ZM20.3903 37.8756H33.2861C35.7869 37.8756 37.8207 35.8506 37.8207 33.3606V32.7006H36.0882C33.8134 32.7006 31.885 31.0206 31.7043 28.8606C31.5837 27.6306 32.0357 26.4156 32.9396 25.5306C33.723 24.7356 34.7775 24.3006 35.9074 24.3006H37.8207V23.2656C37.8207 20.7756 35.7869 18.7506 33.2861 18.7506H15.9913C13.4905 18.7506 11.4567 20.7756 11.4567 23.2656V27.8857C12.3003 27.5557 13.1892 27.3756 14.0931 27.3756C18.0402 27.3756 21.249 30.5706 21.249 34.5006C21.249 35.6856 20.9477 36.8556 20.3903 37.8756Z" fill="#FF681A"/>
<path id="Vector_2" d="M10.3268 25.74C9.70912 25.74 9.1969 25.23 9.1969 24.615V17.7601C9.1969 15.5251 10.613 13.5 12.7071 12.705L24.6688 8.20501C25.9042 7.74001 27.2751 7.90508 28.3447 8.65508C29.4294 9.40508 30.0622 10.6201 30.0622 11.9251V17.6251C30.0622 18.2401 29.55 18.7501 28.9323 18.7501C28.3146 18.7501 27.8024 18.2401 27.8024 17.6251V11.9251C27.8024 11.3551 27.5312 10.8301 27.0491 10.5001C26.5671 10.1701 25.9946 10.095 25.4522 10.305L13.4905 14.805C12.2702 15.27 11.4416 16.4551 11.4416 17.7601V24.615C11.4567 25.245 10.9445 25.74 10.3268 25.74Z" fill="#FF681A"/>
<path id="Vector_3" d="M36.0882 32.6988C33.8134 32.6988 31.885 31.0188 31.7042 28.8588C31.5837 27.6138 32.0357 26.3988 32.9396 25.5138C33.7079 24.7338 34.7625 24.2988 35.8923 24.2988H39.0259C40.5174 24.3438 41.6623 25.5138 41.6623 26.9538V30.0439C41.6623 31.4839 40.5174 32.6538 39.0711 32.6988H36.0882ZM38.9958 26.5488H35.9074C35.3801 26.5488 34.898 26.7438 34.5515 27.1038C34.1147 27.5238 33.9037 28.0938 33.964 28.6638C34.0544 29.6538 35.0035 30.4488 36.0882 30.4488H39.041C39.2368 30.4488 39.4176 30.2689 39.4176 30.0439V26.9538C39.4176 26.7288 39.2368 26.5638 38.9958 26.5488Z" fill="#FF681A"/>
<path id="Vector_4" d="M27.6517 25.125H17.1061C16.4884 25.125 15.9762 24.615 15.9762 24C15.9762 23.385 16.4884 22.875 17.1061 22.875H27.6517C28.2694 22.875 28.7816 23.385 28.7816 24C28.7816 24.615 28.2694 25.125 27.6517 25.125Z" fill="#FF681A"/>
<path id="Vector_5" d="M14.0931 41.625C11.5923 41.625 9.24211 40.305 7.97663 38.16C7.2987 37.08 6.93713 35.805 6.93713 34.5C6.93713 32.31 7.91637 30.285 9.61873 28.935C10.8842 27.93 12.4811 27.375 14.0931 27.375C18.0402 27.375 21.249 30.57 21.249 34.5C21.249 35.805 20.8875 37.08 20.2095 38.175C19.848 38.805 19.3508 39.375 18.7784 39.855C17.5279 40.995 15.8557 41.625 14.0931 41.625ZM14.0931 29.625C12.9783 29.625 11.9237 30 11.0349 30.705C9.87484 31.62 9.19691 33.015 9.19691 34.5C9.19691 35.385 9.43795 36.255 9.90497 37.005C10.7938 38.505 12.3606 39.375 14.0931 39.375C15.2832 39.375 16.4282 38.94 17.302 38.16C17.6937 37.83 18.0251 37.44 18.2661 37.02C18.7482 36.255 18.9893 35.385 18.9893 34.5C18.9893 31.815 16.7898 29.625 14.0931 29.625Z" fill="#FF681A"/>
<path id="Vector_6" d="M13.2341 37.1084C12.9479 37.1084 12.6617 37.0034 12.4357 36.7784L10.9442 35.2934C10.5074 34.8584 10.5074 34.1383 10.9442 33.7033C11.3811 33.2683 12.1043 33.2683 12.5411 33.7033L13.2643 34.4234L15.6747 32.2033C16.1267 31.7833 16.8498 31.8134 17.2716 32.2634C17.6934 32.7134 17.6633 33.4334 17.2114 33.8534L14.0025 36.8084C13.7765 37.0034 13.5053 37.1084 13.2341 37.1084Z" fill="#FF681A"/>
</g>
</g>
</g>
</svg>
