<svg width="56" height="52" viewBox="0 0 56 52" fill="none" xmlns="http://www.w3.org/2000/svg">
<g id="Group 1000006362">
<path id="Vector" d="M34.8889 17.1579C34.8889 18.9263 33.4833 20.3158 31.6944 20.3158C29.9056 20.3158 28.5 18.9263 28.5 17.1579C28.5 15.3895 29.9056 14 31.6944 14C33.4833 14 34.8889 15.3895 34.8889 17.1579ZM32.3333 21.5789H31.3111C28.6278 21.5789 26.0722 20.0632 24.7944 17.6632C24.6667 17.5368 24.5389 17.4105 24.5389 17.2842L22.2389 18.2947C22.8778 20.0632 24.9222 22.3368 27.8611 23.4737L25.5611 29.7895L20.5778 28.4L17 35.3474L19.5556 35.9789L21.8556 31.4316L27.6056 32.9474C28.8833 33.2 30.1611 32.5684 30.6722 31.4316L33.6111 23.3474C33.8667 22.4632 33.2278 21.5789 32.3333 21.5789ZM37.3167 20.3158L32.9722 32.1895C32.2056 34.2105 30.2889 35.4737 28.2444 35.4737C27.8611 35.4737 27.35 35.4737 26.9667 35.3474L23.2611 34.3368L22.1111 36.6105L24.6667 37.2421L26.4556 37.7474C27.0944 37.8737 27.7333 38 28.3722 38C31.5667 38 34.3778 36.1053 35.5278 33.0737L40 20.3158H37.3167Z" fill="#0DB1FF"/>
<path id="Ellipse 5331" d="M55.5 26C55.5 40.049 43.2234 51.5 28 51.5C12.7766 51.5 0.5 40.049 0.5 26C0.5 11.951 12.7766 0.5 28 0.5C43.2234 0.5 55.5 11.951 55.5 26Z" stroke="#0DB1FF"/>
</g>
</svg>
