<svg width="39" height="39" viewBox="0 0 39 39" fill="none" xmlns="http://www.w3.org/2000/svg">
<g id="medical-icon:i-waiting-area">
<path id="Vector" d="M29.6132 20.3659L19.4354 18.6914L20.8955 17.6518L23.3397 17.99L25.7808 17.6518L29.6132 20.3659ZM23.3397 1.13222C23.8249 1.13222 24.3053 1.22781 24.7536 1.41353C25.2019 1.59925 25.6091 1.87145 25.9522 2.21461C26.2952 2.55776 26.5673 2.96513 26.7529 3.41345C26.9384 3.86177 27.0339 4.34226 27.0337 4.82747C27.0337 6.86887 25.7327 8.52272 23.3397 8.52272C22.8488 8.53163 22.361 8.44264 21.9049 8.26094C21.4487 8.07924 21.0334 7.80848 20.683 7.46446C20.3327 7.12044 20.0544 6.71006 19.8645 6.2573C19.6745 5.80454 19.5767 5.31846 19.5767 4.82747C19.5767 4.33647 19.6745 3.8504 19.8645 3.39764C20.0544 2.94488 20.3327 2.5345 20.683 2.19048C21.0334 1.84646 21.4487 1.57569 21.9049 1.39399C22.361 1.21229 22.8488 1.1233 23.3397 1.13222ZM24.2592 27.8387V36.7691C24.2592 37.3042 24.4718 37.8174 24.8502 38.1958C25.2286 38.5741 25.7417 38.7867 26.2769 38.7867C26.812 38.7867 27.3252 38.5741 27.7035 38.1958C28.0819 37.8174 28.2945 37.3042 28.2945 36.7691V27.8387C28.2816 27.3122 28.0633 26.8115 27.6863 26.4437C27.3094 26.0759 26.8035 25.87 26.2769 25.87C25.7502 25.87 25.2444 26.0759 24.8674 26.4437C24.4904 26.8115 24.2722 27.3122 24.2592 27.8387ZM36.6186 32.9373C36.6184 33.2476 36.4952 33.5451 36.276 33.7647C36.0568 33.9842 35.7594 34.1079 35.4492 34.1085H29.2628V28.261H31.9386V22.4171C31.9386 21.7736 32.4632 21.2483 33.1073 21.2483H35.4492C36.0927 21.2483 36.6186 21.773 36.6186 22.4171V32.9373ZM23.294 34.1079H11.2838C11.13 34.1079 10.9778 34.0776 10.8358 34.0188C10.6937 33.9599 10.5647 33.8736 10.4561 33.7648C10.3474 33.656 10.2612 33.5269 10.2025 33.3848C10.1438 33.2427 10.1136 33.0905 10.1138 32.9367V22.4165C10.1141 22.1064 10.2375 21.8091 10.4569 21.5899C10.6763 21.3708 10.9737 21.2477 11.2838 21.2477H13.6244C14.2697 21.2477 14.7944 21.7724 14.7944 22.4165V28.2604H23.294V34.1079ZM16.9699 21.4908C16.8831 22.0188 17.0094 22.5596 17.3211 22.9945C17.6328 23.4294 18.1044 23.7227 18.6323 23.8101L27.4432 25.2622C27.9711 25.3485 28.5117 25.2218 28.9463 24.9099C29.3809 24.598 29.674 24.1264 29.7613 23.5987C29.8045 23.3373 29.7957 23.07 29.7356 22.8121C29.6754 22.5541 29.5649 22.3105 29.4105 22.0953C29.2561 21.88 29.0608 21.6974 28.8358 21.5577C28.6107 21.418 28.3603 21.324 28.0989 21.2812L19.2879 19.8278C18.7601 19.7416 18.2196 19.8682 17.785 20.18C17.3504 20.4917 17.0573 20.9632 16.9699 21.4908ZM7.0328 10.4307C4.15777 10.4307 1.8196 8.0925 1.8196 5.21564C1.8196 2.33878 4.15777 0 7.0328 0C9.90783 0 12.249 2.33939 12.249 5.21564C12.249 8.0925 9.90783 10.4307 7.0328 10.4307ZM7.0328 9.14001C8.07343 9.13872 9.07108 8.72481 9.80697 7.98903C10.5429 7.25325 10.9569 6.25566 10.9584 5.21503C10.9584 3.05236 9.19547 1.29005 7.0328 1.29005C4.8683 1.29005 3.10964 3.05236 3.10964 5.21503C3.11029 6.25549 3.52377 7.25317 4.25931 7.98906C4.99485 8.72494 5.99234 9.13888 7.0328 9.14001Z" fill="#FF681A"/>
<path id="Vector_2" d="M7.0596 5.90387C6.99986 5.93131 6.93414 5.94313 6.86859 5.93823C6.80304 5.93333 6.73981 5.91186 6.68483 5.87584C6.638 5.84583 6.59812 5.80617 6.56785 5.75951C6.53759 5.71285 6.51763 5.66027 6.50933 5.60527L6.50385 2.57424C6.50784 2.47292 6.5509 2.37707 6.624 2.30679C6.69711 2.23652 6.79457 2.19727 6.89598 2.19727C6.99738 2.19727 7.09485 2.23652 7.16795 2.30679C7.24105 2.37707 7.28412 2.47292 7.28811 2.57424V4.92582L9.29844 3.97885C9.34492 3.95666 9.39532 3.94387 9.44675 3.94121C9.49818 3.93855 9.54963 3.94606 9.59815 3.96333C9.64667 3.9806 9.69131 4.00728 9.72949 4.04183C9.76768 4.07639 9.79866 4.11815 9.82067 4.16471C9.8649 4.2588 9.87005 4.36659 9.83498 4.46446C9.79992 4.56234 9.72751 4.64234 9.63359 4.68695L7.0596 5.90326V5.90387ZM23.3397 11.462L28.13 10.682V14.0494L30.4949 15.8281C30.7222 16.0573 30.6302 16.3181 30.5766 16.3918C30.5123 16.4773 30.4169 16.5339 30.311 16.5492C30.2051 16.5645 30.0975 16.5373 30.0117 16.4735L27.027 14.2176C26.7297 14.0166 26.3654 13.9402 26.0124 14.0048C25.6594 14.0694 25.3458 14.2698 25.1389 14.563C24.932 14.8562 24.8483 15.2188 24.9058 15.5731C24.9632 15.9273 25.1573 16.2449 25.4463 16.4576L30.5461 20.0395C30.7832 20.2065 31.1202 20.3205 31.4559 20.3205C31.7423 20.3205 32.0793 20.2016 32.3304 20.0237C32.8654 19.6434 33.0622 18.9689 32.8806 18.3473L30.9867 12.7508C30.4809 11.3602 29.2055 9.72343 27.2896 9.72343H19.3891C17.4738 9.72343 16.1984 11.3602 15.692 12.7508L13.7981 18.3473C13.6159 18.9689 13.8139 19.6441 14.3489 20.0237C14.5982 20.2016 14.9364 20.3205 15.2216 20.3205C15.5592 20.3205 15.8968 20.2071 16.1332 20.0395L21.233 16.4576C21.522 16.2449 21.7161 15.9273 21.7736 15.5731C21.831 15.2188 21.7473 14.8562 21.5404 14.563C21.3335 14.2698 21.0199 14.0694 20.6669 14.0048C20.3139 13.9402 19.9496 14.0166 19.6523 14.2176L16.6658 16.4735C16.5801 16.5371 16.4727 16.5642 16.3671 16.5489C16.2615 16.5336 16.1662 16.4771 16.1021 16.3918C16.048 16.3031 16.0264 16.1984 16.0411 16.0955C16.0557 15.9927 16.1058 15.8981 16.1825 15.8281C16.1825 15.8281 17.7864 14.6234 18.5488 14.0494V10.682L23.3397 11.4626V11.462Z" fill="#FF681A"/>
</g>
</svg>
