<svg width="56" height="52" viewBox="0 0 56 52" fill="none" xmlns="http://www.w3.org/2000/svg">
<path d="M34.8337 37.0941V34.6247H32.3632C32.125 34.6247 31.8965 34.5301 31.728 34.3618C31.5596 34.1934 31.4649 33.965 31.4649 33.7269C31.4649 33.4888 31.5596 33.2604 31.728 33.092C31.8965 32.9236 32.125 32.829 32.3632 32.829H34.8337V30.3596C34.8337 30.1213 34.9284 29.8928 35.097 29.7243C35.2655 29.5558 35.4942 29.4612 35.7325 29.4612C35.9709 29.4612 36.1996 29.5558 36.3681 29.7243C36.5367 29.8928 36.6314 30.1213 36.6314 30.3596V32.829H39.1018C39.34 32.829 39.5684 32.9236 39.7369 33.092C39.9054 33.2604 40 33.4888 40 33.7269C40 33.965 39.9054 34.1934 39.7369 34.3618C39.5684 34.5301 39.34 34.6247 39.1018 34.6247H36.6314V37.0941C36.6314 37.3323 36.5367 37.5606 36.3683 37.729C36.1998 37.8974 35.9713 37.992 35.7331 37.992C35.4949 37.992 35.2664 37.8974 35.098 37.729C34.9295 37.5606 34.8337 37.3323 34.8337 37.0941ZM19.7257 37.992C19.3198 37.9915 18.9193 37.9005 18.5531 37.7256C18.1869 37.5508 17.8643 37.2966 17.6088 36.9814C17.3533 36.6662 17.1713 36.298 17.0761 35.9037C16.9809 35.5093 16.9749 35.0987 17.0586 34.7018C17.4781 32.6956 18.4184 30.8351 19.7852 29.3073C21.152 27.7794 22.897 26.6381 24.8449 25.998C23.8172 25.2301 23.0576 24.1583 22.6735 22.9345C22.2895 21.7108 22.3006 20.3973 22.7054 19.1802C23.1102 17.9632 23.8881 16.9044 24.9287 16.1541C25.9693 15.4038 27.2198 15 28.5029 15C29.786 15 31.0365 15.4038 32.0771 16.1541C33.1177 16.9044 33.8954 17.9632 34.3002 19.1802C34.705 20.3973 34.7163 21.7108 34.3322 22.9345C33.9482 24.1583 33.1884 25.2301 32.1607 25.998C32.6218 26.1513 33.0731 26.3326 33.5122 26.5406C33.7185 26.6482 33.8751 26.8314 33.9491 27.0519C34.0231 27.2725 34.0087 27.513 33.909 27.7232C33.8092 27.9333 33.6319 28.0966 33.4142 28.1788C33.1965 28.2609 32.9554 28.2556 32.7416 28.1639C31.4901 27.5677 30.1263 27.244 28.7403 27.2143C28.6609 27.2143 28.5804 27.2143 28.4999 27.2143C28.4194 27.2143 28.34 27.2143 28.2618 27.2143C26.0332 27.2739 23.8896 28.0815 22.1761 29.5071C20.4626 30.9327 19.2791 32.8933 18.816 35.0731C18.7872 35.2101 18.7893 35.3518 18.8224 35.4879C18.8554 35.6239 18.9184 35.7508 19.0068 35.8594C19.0928 35.9675 19.2021 36.0547 19.3267 36.1145C19.4512 36.1742 19.5875 36.2049 19.7257 36.2043H30.7911C31.0293 36.2043 31.2577 36.2989 31.4262 36.4673C31.5947 36.6356 31.6893 36.864 31.6893 37.1021C31.6893 37.3403 31.5947 37.5686 31.4262 37.737C31.2577 37.9054 31.0293 38 30.7911 38L19.7257 37.992ZM28.7197 25.4128C29.8435 25.3559 30.9004 24.8622 31.6653 24.0373C32.4302 23.2123 32.8424 22.1212 32.8139 20.9968C32.7854 19.8725 32.3184 18.8037 31.5127 18.0185C30.707 17.2333 29.6263 16.7939 28.5011 16.7939C27.3758 16.7939 26.2951 17.2333 25.4894 18.0185C24.6838 18.8037 24.2169 19.8725 24.1884 20.9968C24.1599 22.1212 24.572 23.2123 25.3368 24.0373C26.1017 24.8622 27.1588 25.3559 28.2826 25.4128H28.4999H28.7197Z" fill="#0DB1FF"/>
<path d="M55.5 26C55.5 40.049 43.2234 51.5 28 51.5C12.7766 51.5 0.5 40.049 0.5 26C0.5 11.951 12.7766 0.5 28 0.5C43.2234 0.5 55.5 11.951 55.5 26Z" stroke="#0DB1FF"/>
</svg>
