<svg width="49" height="49" viewBox="0 0 49 49" fill="none" xmlns="http://www.w3.org/2000/svg">
<g id="quality-svgrepo-com 1" clip-path="url(#clip0_1820_77200)">
<g id="Group">
<g id="Group_2">
<path id="Vector" d="M32.8158 19.8162L30.4054 17.4163C30.0912 17.1034 29.5834 17.1034 29.2693 17.4163L20.9993 25.6505L18.3535 23.0162C18.0393 22.7034 17.5315 22.7034 17.2174 23.0162L14.807 25.4162C14.4928 25.7289 14.4928 26.2346 14.807 26.5473L20.4312 32.1472C20.5879 32.304 20.7936 32.3816 20.9993 32.3816C21.205 32.3816 21.4106 32.3032 21.5673 32.1472L32.8158 20.9474C33.13 20.6346 33.13 20.1291 32.8158 19.8162ZM20.9993 30.4505L16.5112 25.9818L17.7855 24.713L20.4312 27.3473C20.7454 27.6601 21.2532 27.6601 21.5673 27.3473L29.8374 19.113L31.1117 20.3818L20.9993 30.4505Z" fill="#FF681A"/>
</g>
</g>
<g id="Group_3">
<g id="Group_4">
<path id="Vector_2" d="M48.1322 28.6696L44.5439 24.3817L48.1322 20.0937C48.3323 19.8553 48.3748 19.5234 48.2431 19.2426C48.1105 18.9618 47.8269 18.7818 47.5152 18.7818H36.9633L36.2586 13.8691C36.2024 13.4747 35.8633 13.1819 35.4632 13.1819H29.3263C28.3799 12.3963 24.7289 9.36761 24.7289 9.36761C24.4308 9.11965 23.9985 9.11965 23.7004 9.36761L19.103 13.1819H12.9661C12.566 13.1819 12.2278 13.4747 12.1707 13.8684L11.4661 18.7819H0.914435C0.602686 18.7819 0.319089 18.9619 0.186518 19.2427C0.0539475 19.5243 0.0973532 19.8563 0.297434 20.0938L3.8857 24.3818L0.297434 28.6697C0.0973532 28.9081 0.0547949 29.2401 0.186518 29.5208C0.319089 29.8025 0.602686 29.9816 0.914435 29.9816H11.4663C11.6807 31.4736 12.1717 34.8951 12.1717 34.8951C12.2279 35.2895 12.5669 35.5816 12.9662 35.5816H19.1031L23.7005 39.3959C23.85 39.5199 24.0323 39.5815 24.2147 39.5815C24.3971 39.5815 24.5803 39.5199 24.7289 39.3959L29.3255 35.5816C30.5741 35.5816 35.4647 35.5848 35.4631 35.5816C35.8633 35.5816 36.2015 35.2888 36.2585 34.8951C36.2585 34.8951 36.7494 31.4736 36.9639 29.9816H47.515C47.8267 29.9816 48.1103 29.8016 48.2429 29.5208C48.3757 29.2391 48.3323 28.9072 48.1322 28.6696ZM2.62985 28.3816L5.54886 24.8937C5.79715 24.5969 5.79715 24.1658 5.54886 23.8697L2.62985 20.3817H10.4475L7.52848 23.8696C7.28019 24.1664 7.28019 24.5976 7.52848 24.8936L10.4475 28.3815H2.62985V28.3816ZM35.6505 28.6688C35.6111 28.7159 35.5766 28.768 35.5492 28.8232C35.493 28.9352 35.4906 28.94 34.7675 33.9815C28.8468 33.9815 28.8411 33.9847 28.6765 34.0663C28.621 34.0944 28.5688 34.1279 28.5214 34.1671L24.2148 37.7398L19.9082 34.1671C19.7645 34.0471 19.582 33.9815 19.394 33.9815H13.663C12.9399 28.94 12.9374 28.9352 12.8812 28.8232C12.8531 28.768 12.8194 28.716 12.78 28.6688L9.19174 24.3817L12.78 20.0937C12.8757 19.9793 12.9375 19.8417 12.9583 19.6945L13.663 14.7819H19.394C19.5821 14.7819 19.7636 14.7162 19.9082 14.5962L24.2148 11.0235C28.5921 14.6554 28.5953 14.657 28.6765 14.6979C28.7881 14.7531 28.9111 14.7819 29.0356 14.7819H34.7666L35.4713 19.6954C35.4922 19.8426 35.554 19.9802 35.6496 20.0946L39.2379 24.3817L35.6505 28.6688ZM37.982 28.3816L40.901 24.8937C41.1493 24.5969 41.1493 24.1658 40.901 23.8697L37.982 20.3818H45.7997L42.8807 23.8697C42.6324 24.1665 42.6324 24.5977 42.8807 24.8937L45.7997 28.3816H37.982Z" fill="#FF681A"/>
</g>
</g>
</g>
<defs>
<clipPath id="clip0_1820_77200">
<rect width="48.2085" height="48" fill="white" transform="translate(0.110397 0.380859)"/>
</clipPath>
</defs>
</svg>
