<svg width="45" height="45" viewBox="0 0 45 45" fill="none" xmlns="http://www.w3.org/2000/svg">
<g id="quill:vip">
<path id="Vector" d="M9.84375 18.2812L14.0625 27.4219L18.2812 18.2812M23.2031 18.2812V27.4219M28.8281 24.293H30.9094C31.8248 24.293 32.7052 23.9062 33.3295 23.2383C33.8441 22.6894 34.1548 21.9806 34.2098 21.2302C34.2649 20.4798 34.0609 19.7333 33.6319 19.1152C33.4512 18.8577 33.2112 18.6476 32.9321 18.5025C32.6531 18.3573 32.3433 18.2815 32.0287 18.2812H28.8281V24.293ZM28.8281 24.293V27.4219M7.03125 9.84375H37.9688C38.7147 9.84375 39.43 10.1401 39.9575 10.6675C40.4849 11.195 40.7812 11.9103 40.7812 12.6562V32.3438C40.7812 33.0897 40.4849 33.805 39.9575 34.3325C39.43 34.8599 38.7147 35.1562 37.9688 35.1562H7.03125C6.28533 35.1562 5.56996 34.8599 5.04251 34.3325C4.51507 33.805 4.21875 33.0897 4.21875 32.3438V12.6562C4.21875 11.9103 4.51507 11.195 5.04251 10.6675C5.56996 10.1401 6.28533 9.84375 7.03125 9.84375Z" stroke="#FF681A" stroke-width="2" stroke-linecap="round" stroke-linejoin="round"/>
</g>
</svg>
